<svg xmlns="http://www.w3.org/2000/svg" viewBox="0 0 100.85 70"><defs><style>.a{fill:#ffa300;}.b{fill:#ff6900;}.c{fill:#fedd00;}</style></defs><title>Logo_Forge+TaglineHorizontal_RGB</title><path class="a" d="M25.75,34.87a1.68,1.68,0,0,0,1.63-1.23,23.66,23.66,0,0,1,1-2.83c2.79-6.92,11.75-15.37,24.84-15.37a26.43,26.43,0,0,1,17.36,6.65A27,27,0,0,0,25.2,29.51a26.52,26.52,0,0,0-1.11,3.25,1.7,1.7,0,0,0,1.66,2.11Z"/><path class="b" d="M12.76,34.87a1.75,1.75,0,0,0,1.73-1.42A35.89,35.89,0,0,1,16.69,26C20.43,16.73,33.25,2.6,53.19,2.6a39.34,39.34,0,0,1,26,10.07,39.7,39.7,0,0,0-65.8,12A39.54,39.54,0,0,0,11,32.8a1.76,1.76,0,0,0,1.74,2.07Z"/><path class="a" d="M77.81,28.4a29.62,29.62,0,0,1,1.61,5.17,1.66,1.66,0,0,0,1.63,1.3h0a1.66,1.66,0,0,0,1.6-2.12,21.4,21.4,0,0,0-1-2.87A32.2,32.2,0,0,0,60.4,11.77,30,30,0,0,1,77.81,28.4Z"/><path class="a" d="M18.59,39.19a1.72,1.72,0,0,0,1.72-1.61,29.81,29.81,0,0,1,2.22-9.18C25.82,20.22,36.72,9,53.19,9A32.86,32.86,0,0,1,74.91,17.4a33.34,33.34,0,0,0-55.6,9.67,32.94,32.94,0,0,0-2.45,10.26,1.74,1.74,0,0,0,1.73,1.86Z"/><path class="c" d="M72,30.81a23.3,23.3,0,0,1,1.71,6.83,1.7,1.7,0,0,0,1.69,1.55h0a1.69,1.69,0,0,0,1.69-1.84c-.07-.82-.19-1.65-.34-2.48a26.64,26.64,0,0,0-.91-2.59A24.69,24.69,0,0,0,58.38,17.73,23.69,23.69,0,0,1,72,30.81Z"/><path class="b" d="M83.64,26a36,36,0,0,1,2.71,11.58,1.75,1.75,0,0,0,1.75,1.63h0a1.77,1.77,0,0,0,1.76-1.87c-.06-1-.17-2-.31-3.09A37.29,37.29,0,0,0,62.48,5.83,36.36,36.36,0,0,1,83.64,26Z"/><path class="c" d="M31.85,38.71a1.66,1.66,0,0,1-1.62-1.9A20.11,20.11,0,0,1,50.12,19.65h.09a19.86,19.86,0,0,1,11.24,3.48,20.21,20.21,0,0,0-28,14.27A1.64,1.64,0,0,1,31.85,38.71Z"/><path class="b" d="M15.7,47.53a6.23,6.23,0,0,0-1.18-.11h-12a2.84,2.84,0,0,0-1.94.51A2.61,2.61,0,0,0,0,49.84V67.26a6.56,6.56,0,0,0,.11,1.18c.08.38.26,1.24,2.28,1.24s2.24-.85,2.32-1.22a5,5,0,0,0,.13-1.17V60.57h6.5a6.59,6.59,0,0,0,1.16-.09,1.19,1.19,0,0,0,.78-.53,2.72,2.72,0,0,0,.29-1.45A2.88,2.88,0,0,0,13.28,57a1.13,1.13,0,0,0-.78-.54,5.52,5.52,0,0,0-1.13-.1H4.84V52.26h9.62a5.66,5.66,0,0,0,1.19-.11,1.42,1.42,0,0,0,.91-.62,3,3,0,0,0,.35-1.65,3.2,3.2,0,0,0-.34-1.72A1.37,1.37,0,0,0,15.7,47.53Z"/><path class="b" d="M58.05,65.64l-2.79-4a7.91,7.91,0,0,0-4.59-14.22H44c-2.46,0-2.42,1.37-2.42,2.39V67.23c0,1.59.57,2.45,2.39,2.45,2.46,0,2.45-1.37,2.45-2.42V63H50.3l3.81,5.44c.87,1.2,1.58,1.86,3.34.57C58.53,68.26,59.43,67.58,58.05,65.64Zm-4.74-9a2.61,2.61,0,0,1-2.42,1.62H46.46v-6H50.6a2.76,2.76,0,0,1,3,3A3.39,3.39,0,0,1,53.31,56.63Z"/><path class="b" d="M78.43,56.34h-6c-1.29,0-2,.48-2,2.07s.45,2.1,1.94,2.1h3.41V64.4a6.81,6.81,0,0,1-1.13.36c-7.22,1.66-9-4-8.93-6.45,0-1.26.6-6.37,6.33-6.37a9.28,9.28,0,0,1,3.89,1c1.15.73,2.08,1.43,3.53-.67.21-.29,1-1.75.08-2.62a10.62,10.62,0,0,0-7.34-2.57,11.36,11.36,0,0,0-10.47,6.77,11,11,0,0,0-.86,4.38c0,6.36,4.58,11.72,11.08,11.72,3,0,8.69-1.2,8.69-4.49V58.73C80.63,56.94,79.83,56.38,78.43,56.34Z"/><path class="b" d="M98.43,64.84H88.75V60.57h6.5c1,0,2.26.22,2.26-2.07s-1.1-2.13-2.2-2.13H88.75V52.26H98.4c1.48,0,2.45-.19,2.45-2.38,0-2.88-1.9-2.46-2.42-2.46h-12c-1.83,0-2.49.51-2.49,2.42V67.26c0,1.63.33,2.42,2.39,2.42H98.4c2,0,2.45-.75,2.45-2.39S100.46,64.84,98.43,64.84Z"/><path class="b" d="M28.52,47.2a11.41,11.41,0,0,0,0,22.8,11.41,11.41,0,0,0,0-22.8Zm0,18a6.58,6.58,0,0,1,0-13.12,6.58,6.58,0,0,1,0,13.12Z"/></svg>