<svg xmlns="http://www.w3.org/2000/svg" viewBox="0 0 200 55.17"><defs><style>.a{fill:#ffa300;}.b{fill:#ff6900;}.c{fill:#fedd00;}</style></defs><title>Logo_Forge+TaglineHorizontal_RGB</title><path class="a" d="M20.29,27.49a1.34,1.34,0,0,0,1.29-1,19.14,19.14,0,0,1,.77-2.24c2.19-5.45,9.25-12.11,19.57-12.11a20.86,20.86,0,0,1,13.69,5.24,21.28,21.28,0,0,0-35.75,5.85A20.88,20.88,0,0,0,19,25.82a1.34,1.34,0,0,0,1.3,1.67Z"/><path class="b" d="M10.06,27.49a1.38,1.38,0,0,0,1.36-1.13,28.93,28.93,0,0,1,1.74-5.88C16.1,13.19,26.21,2.05,41.92,2.05A31,31,0,0,1,62.44,10,31.38,31.38,0,0,0,8.68,25.86a1.39,1.39,0,0,0,1.38,1.63Z"/><path class="a" d="M61.32,22.38a22.61,22.61,0,0,1,1.28,4.08,1.31,1.31,0,0,0,1.28,1h0a1.31,1.31,0,0,0,1.26-1.68,17.92,17.92,0,0,0-.8-2.26A25.38,25.38,0,0,0,47.61,9.28,23.65,23.65,0,0,1,61.32,22.38Z"/><path class="a" d="M14.65,30.88A1.35,1.35,0,0,0,16,29.62a23.61,23.61,0,0,1,1.74-7.24c2.6-6.44,11.19-15.27,24.17-15.27A25.92,25.92,0,0,1,59,13.71a26.29,26.29,0,0,0-43.82,7.62,26.14,26.14,0,0,0-1.93,8.09,1.36,1.36,0,0,0,1.36,1.46Z"/><path class="c" d="M56.73,24.28a18.57,18.57,0,0,1,1.35,5.38,1.34,1.34,0,0,0,1.33,1.22h0a1.33,1.33,0,0,0,1.34-1.44,18.68,18.68,0,0,0-.28-2,19,19,0,0,0-.71-2A19.45,19.45,0,0,0,46,14,18.64,18.64,0,0,1,56.73,24.28Z"/><path class="b" d="M65.92,20.48a28.2,28.2,0,0,1,2.14,9.12,1.37,1.37,0,0,0,1.38,1.28h0a1.38,1.38,0,0,0,1.38-1.46c0-.81-.13-1.62-.24-2.44a30,30,0,0,0-1.66-5.33A29.43,29.43,0,0,0,49.25,4.59,28.7,28.7,0,0,1,65.92,20.48Z"/><path class="c" d="M25.11,30.51a1.31,1.31,0,0,1-1-.46,1.28,1.28,0,0,1-.29-1A15.85,15.85,0,0,1,39.5,15.49h.08a15.72,15.72,0,0,1,8.86,2.74A15.93,15.93,0,0,0,26.37,29.48,1.31,1.31,0,0,1,25.11,30.51Z"/><path class="b" d="M12.37,37.47a4.45,4.45,0,0,0-.93-.09H2a2.21,2.21,0,0,0-1.53.4A2,2,0,0,0,0,39.29V53a4.73,4.73,0,0,0,.09.93c.06.3.2,1,1.79,1s1.77-.67,1.83-1a3.85,3.85,0,0,0,.1-.91v-5.3H8.93a4.92,4.92,0,0,0,.92-.07.93.93,0,0,0,.62-.42,2.13,2.13,0,0,0,.22-1.14,2.32,2.32,0,0,0-.22-1.18.93.93,0,0,0-.62-.42A4,4,0,0,0,9,44.43H3.81V41.19h7.58a4.79,4.79,0,0,0,.95-.09,1.08,1.08,0,0,0,.71-.48,2.34,2.34,0,0,0,.28-1.31A2.55,2.55,0,0,0,13.06,38,1,1,0,0,0,12.37,37.47Z"/><path class="b" d="M45.76,51.73l-2.2-3.15a6,6,0,0,0,2.47-5,6,6,0,0,0-6.1-6.2H34.71c-1.94,0-1.9,1.08-1.9,1.88V53c0,1.25.44,1.93,1.88,1.93,1.94,0,1.93-1.08,1.93-1.91V49.67h3l3,4.3c.69.94,1.26,1.46,2.64.45C46.13,53.8,46.84,53.26,45.76,51.73ZM42,44.63a2.06,2.06,0,0,1-1.91,1.28H36.62V41.19h3.26a2.18,2.18,0,0,1,2.34,2.36A2.7,2.7,0,0,1,42,44.63Z"/><path class="b" d="M61.82,44.41H57.08c-1,0-1.58.37-1.58,1.63s.35,1.65,1.53,1.65h2.68v3.06a4.42,4.42,0,0,1-.89.29c-5.69,1.31-7.07-3.17-7-5.08,0-1,.48-5,5-5a7.29,7.29,0,0,1,3.06.78c.9.57,1.63,1.12,2.78-.53.16-.23.8-1.38.07-2.07a8.44,8.44,0,0,0-5.79-2,9,9,0,0,0-8.26,5.33A8.82,8.82,0,0,0,48,45.89c0,5,3.61,9.23,8.73,9.23,2.38,0,6.85-.94,6.85-3.53v-5.3C63.55,44.88,62.92,44.44,61.82,44.41Z"/><path class="b" d="M77.58,51.11H70V47.74h5.12c.79,0,1.78.17,1.78-1.63s-.86-1.68-1.73-1.68H70V41.19h7.61c1.16,0,1.93-.15,1.93-1.88,0-2.26-1.5-1.93-1.91-1.93H68.09c-1.44,0-2,.39-2,1.91V53c0,1.29.26,1.91,1.88,1.91h9.54c1.61,0,1.93-.59,1.93-1.88S79.18,51.11,77.58,51.11Z"/><path class="b" d="M22.48,37.2a9,9,0,0,0,0,18,9,9,0,0,0,0-18Zm0,14.16a5.18,5.18,0,0,1,0-10.34,5.18,5.18,0,0,1,0,10.34Z"/><path class="a" d="M110.47,27.92h.09l0,.25-.08.13v.13h0v.12l0,0,0,.18a3.42,3.42,0,0,1,0,.45v.52l0,0,.09.4v.38l-.06.09,0,0-.06.11-.13.06s0,0,0,0h-.07l0,.05s0,.09,0,.13l-.16.18v.09l0,0-.06,0s0,0,0,0h0s0,0,0,0h0s0,0,0,0h0v-.09h0s0,0,0-.09l-.06,0h0L109.6,31v.17l.06.05s0,0,0,.07l0,.06-.07.09h-.11l-.07.12s0,0,0,0v-.07l0-.06s0-.07,0-.11l0,0-.06.14-.05-.09,0,.09s0-.09,0-.13h0l0,.1h0v-.08h0l-.06,0s0,0,0,0v.08l0,0,0,.09v-.22l0,.1h-.07s0,.09,0,.12h0l-.09-.12h0s0,0,0,0h0s0,.06,0,.09a.8.8,0,0,1-.11-.23l0-.35v-.16l.07,0,0-.06-.06,0a3.7,3.7,0,0,0,0-.47h0v-.06h0v-.53h.09v.06l0,0v.07h0a.64.64,0,0,0,0-.07l0,0v-.09l0,0c0-.07,0-.16,0-.24v-.36h0v.29l0,.33,0,0V28.9h0v0l0,0a1.46,1.46,0,0,0,0-.2V28.3l0,0V27.7a2.85,2.85,0,0,0,0-.41v-.67l0-.11v-.89l-.05-.14s0,0,0-.05l0-.06,0-.05-.18-.31,0,0,0-.16-.09-.07a5.25,5.25,0,0,1-.33-.49l-.43-.81-.15-.36-.21-.35a6.57,6.57,0,0,0-.26-.61l0,0-.47-1V21a1.54,1.54,0,0,1-.17-.31l0-.2-.14-.14-.1-.31,0-.06c0-.14-.16-.27-.2-.41a2.79,2.79,0,0,1-.07-.4h.18v-.05l0-.13h.11l0,0,0,.14.08,0,0,0v0l.06-.05v-.06h0l0-.12,0,0v0h0l0,0,0,0,.2.2v-.06h0l0-.1V18.9l0,0v-.06l0,0h0v0l.09,0,.1-.05.09,0,.05,0h0l0,0h.09l.18,0h.06a1,1,0,0,1,.34,0l.07,0,.06,0,.12.05.18.18a1.19,1.19,0,0,1,.11.26h0l.07.15.07.09a1.21,1.21,0,0,1,.09.2l.06.05a4.67,4.67,0,0,0,.27.49l0,.15h0l.11.26a1.15,1.15,0,0,1,.15.2,2.63,2.63,0,0,1,.21.41c.08.15.11.33.2.47l.06.09s0,0,0,.06.17.28.24.45a1.19,1.19,0,0,0,.13.34l.12.18c.15-.22.2-.47.33-.69h0c.06-.11.15-.22.2-.33l0,0a3.37,3.37,0,0,0,.25-.46l.09-.2c.11-.18.24-.32.35-.5s.23-.36.34-.56a4.26,4.26,0,0,1,.41-.54l.08-.17.14-.12,0-.06a2.63,2.63,0,0,1,.38-.36h0l.09.07.09-.12.12,0,0,0h.09l.11-.05,0,0,0,0,.23-.11H113l0,0,.11,0,.07.07.2,0c.11.07.14.2.23.29s0,.12,0,.18l-.12.25a2.45,2.45,0,0,1,0,.38l-.25.69a1,1,0,0,0-.17.32v.13l-.06.05,0,.11v0l-.09.23a1.74,1.74,0,0,1-.15.26,5,5,0,0,1-.38.56l0,.16-.17.45-.1.07-.17,0,0,.09,0,0,0,.11,0,.09,0,.14,0,.06,0,.09,0,.12-.07.11h-.2v.09l-.11.09a1.66,1.66,0,0,1-.13.27,2.83,2.83,0,0,1-.43.42l0-.13h0l-.06.15h.09l0,.08h-.12l0,.06,0-.06h-.06s0,.08,0,.11h-.13a1.14,1.14,0,0,1,0,.26h0v.09l.06,0c0,.07,0,.16,0,.24h0l.06.18,0,.15,0,.27h0l0,.05v.31l0,.06v.05l0,.11v.49l.09,0v0l0,.07v0l-.06.18v.12l0,.09,0,0,0,.06v0h0v0l0,0Zm-2.37-3.09v0l0-.07v.11Zm.15.51v-.08h0v0Zm.14,2.76,0-.05v0h0Zm0,.07h0v0h0Zm0,.33h0l0-.11h-.07Zm0,.34.09-.13a2.82,2.82,0,0,1,0-.41h0a1.42,1.42,0,0,1,0,.29l0,.14Zm0-1.05h0v-.2l0,0Zm0,.13h0v-.09h0Zm0,2.76,0,0h0v-.06s0,0,0,0v-.09l0-.05v-.15s0-.07,0-.11l-.09.06a1.42,1.42,0,0,1,0,.29S108.48,30.65,108.48,30.68Zm0-3.21,0,0v.07Zm0,1.37h0v0Zm0,1.34s0,0,0-.06h0l0-.15.06,0c0-.15,0-.28,0-.42l0,0a1.46,1.46,0,0,1,0,.29h0v-.15h0l0,.15v.27A.64.64,0,0,1,108.5,30.18Zm.2,0a.64.64,0,0,1,0-.07l0,0h-.06Zm-.06.34,0,0a1,1,0,0,0,.06-.23h-.08Zm.18-.34V30h0v.16Zm.06-.6,0,0v0h0Zm.11.74,0,0v-.06h0Zm0,.2,0,0v-.07l0,0,0,0Zm0,.91v.07l0,0v-.06S109,31.44,109,31.43Zm0-.2h0v-.09h0ZM110,22h0v.09l0,0h0l-.12.14,0,.11-.06-.09h0l0,0,.06.07-.06,0-.11,0,.08.12-.11.11a1.84,1.84,0,0,1-.17.25l0,0,.11.14.07,0h.06v-.11h0l0-.09h.11l.06-.09,0,0v-.07l0,0v-.07h.09v.11l.1-.14.06,0,.07.13.16-.33-.07-.07,0,0,0,.07-.09.14-.06-.12v-.08l-.12.11h0v0l.13-.18h0l0-.06.07-.16v0l0,0,0-.09-.09,0V22l0,0Zm-.52,9.22h.07c0-.05,0-.13,0-.18h0l-.05.13,0,0Zm.11-7.77c0-.07.07-.13.09-.2l.12-.11V23l.09-.13h0l-.09.17h-.09c0,.06-.06.15-.09.2Zm.11-.56v-.05h0Zm0,.47,0,0v0l0,0Zm.14-.69.06-.05,0-.06,0,0Zm.07.09.08,0,0-.18-.09.16Zm.06.11.09-.13h-.06Zm0,8.08,0-.05h0Zm.09-8.24h0l0-.07v-.06h0Zm0-.92.12-.09h-.09l0,0Zm.09-.17.07-.05,0-.09v.11l.09-.06.13,0,0-.14,0,0,0-.09,0-.05h0l-.08.1v-.16l0,0,0-.08h0l0,.06-.12.14-.08.17,0,0-.13.15Zm0,.53h0l0-.06,0,0,0,.07Zm0-.22h0l0-.14,0-.08,0,.17Zm0,.49,0-.15h0Zm0,.29,0,0h0Zm0-.67.06-.09v0l-.06,0Zm.09,3.51,0,0v-.26h0Zm0,.27V25.7l0,0v0Zm0,.9,0,0,0-.12,0,.09Zm0-.23v-.09l0-.06v.15Zm0,4.5h0Zm0-10,0,0,0-.05h0Zm0,5.91h0l0,0Zm0,4.15v0s0,0,0,0Zm0-9.5.07-.09,0,0v0l.12-.18,0,0-.2.2Zm.09-.67.07-.09.16-.06.06-.21v0l-.11,0,0,.07v.16l-.09,0-.11.17Zm-.07.2h.05V21h0Zm0,10h0v.16s0,0,0,0,0,0,0,0S110.52,31.15,110.52,31.1Zm.11-9.63.13-.17,0-.05v-.07a1.45,1.45,0,0,1-.19.29Zm.07-.36h0v0h0Zm0-.13.09-.07,0,0,0-.05-.07.11Zm.09-.56h.13l0,0,0-.05.11-.13v0H111v0l-.06.06,0,0,0,.13Zm0,.9h0l0-.07h-.05Zm.13-.77h0l0,0,0,0v-.09h0l-.07.09Zm0,.39.07-.09h0l-.07.07Zm.07-.29h0Zm0-.3.07-.08v0l-.07.07Zm.11-.33,0-.11V20Zm0,.06h0v0Zm0,.41v0l0,0,0,.06Zm0-.63.1,0v-.09l-.1.07Zm0,.94,0,0h0Zm0-.27.15-.13v-.07A1.73,1.73,0,0,0,111.19,20.53Zm.06,0v0s0,0,0,0Zm0-.36,0,0h0Zm0-.51h0l.18-.18h0l0,0h0l0,.06h0l-.09.07Zm.13.37h0v0h0Zm0-.33.12-.07-.07,0Zm0-.29h.07l0-.07-.11.05Zm.13.49V19.9s0,0,0,0Zm0-.65.15-.11v0l-.11.08Zm0,.34h0v0h0Zm0-.23h0v0h0Zm.14-.31.08,0v0h-.08Zm.11-.07,0-.06-.09.08Z"/><path class="a" d="M115.87,28.23l-.23-.17-.11,0-.47-.42-.51-.63-.23-.42-.34-.7-.15-.56,0-.33-.06-.76v-.68l.15-1.14.18-.78.21-.56.44-.83.16-.23.07-.15.31-.34,0-.06.3-.36.08,0,0,0,0-.09.19-.09.13-.09.31-.09-.06,0-.28.24V19l.36-.27.18-.07h0l0,0-.13,0-.09.18h.07l0,0,.11,0,.09-.06.07,0,.11-.1.15-.06h.07l0,0h0l-.06,0-.07,0-.06.07.11,0,.11-.05h.07l.09,0,.13,0,0-.06h.1l.2,0,.06,0h.07l0,0,0,0,.07,0H118l0,0,.11,0,0,0,.46,0,.32.05.4.18h0l.16.05.58.49.29.36.11.08.36.7,0,.33.11.36.07.16,0,.15,0,.05v.09l0,.07,0,.13v1.55l-.11.55-.05.1v0l-.17.58-.05.12h0l0-.05h0v.07l.07,0v.07l0,.16-.07.09-.08.18h0v-.09h0l-.09.13,0,0v.11l.09-.13h0v.07l-.09.06-.16.21h-.06l.06-.05,0-.13h0l0,.06v.07l-.07.13-.06,0,0,0v-.09H120l0,.08v.05h.11l0,.09,0,0v0h0l0,.08h0v0l0,.11h0l0-.06h-.13l-.07.18v.06l0,0-.06.07,0,0v0l0,.07,0,0v0h-.07v.09h0l0,.08h0v.09l0,.06,0,.11-.22.39,0,.09-.11.15,0,.05-.15.13,0,0,0,0-.15.09-.5.12-.2.11,0,0H118l-.07.07-.18.09-.13,0-.2.11-.32.05h-.47l-.31,0Zm-1.06-7h0v-.09h0Zm0-.16h0v-.08l0,0Zm.27-1h0l0,0Zm.06,0,0,0,0,0Zm0-.11,0,0v-.05h0Zm0,1.39.07-.07h0v-.11h0l0-.05,0-.06v0h-.06l0,.12,0,0-.07.13Zm0,.15v0l0-.06,0-.07V21.2l0,.05,0,.11Zm0-1.63h0l0,0Zm.06,1.37h0v0h0Zm0-1.52.49-.52,0,0-.34.35v0l-.13.11Zm.06,1.16h0l.11-.16-.07,0-.07.07Zm0,.09,0,0h0Zm.1,1.41v0h0Zm2.19,3.92.16-.2.08,0v-.06h.06l.16-.14.14-.2.17-.31,0-.12,0,0h0l0,0,.15-.27,0-.11.07-.14.07-.23,0-.06v0l.07-.27v-.39l0-.24.06-.79-.18-1-.13-.31,0-.06-.18-.28-.18-.19-.07-.1-.16-.13-.07,0H118l-.09,0v-.09l.07,0,0,0H118v0h0v0l-.25-.11-.09.08h0l0,.08-.13,0v0l0,0,0-.07-.09,0,0,0-.46.11,0,0,0,.07-.07,0,0,.09h0l0,.05h-.11l-.18.09,0,0-.07,0,0,.07.09,0h-.07l-.06,0v0l.09,0h0l0-.05,0,0,.07,0,0,0,.07,0,0-.06,0,0H117v0h-.06l-.07.06-.18.05-.33.22-.21.22-.11.07-.06.25,0,0V21.4l0-.08v-.07l0,0-.13.18,0,.14v.26l0,0,0,0,0,.16v.25l0,.06,0,0,0-.42,0,0v-.06l.09-.09v.15l-.07,0,0,.05,0,.07,0,0,0,0,0,.26,0,.23.18,1v0l.06.4.07.14v.07l0,.06.09.29,0,.05,0,0,0,.05v.07l.14.29,0,0,.07.14,0,.06.14.25,0,0h0l.13.17,0,.07.22.2.18.09,0,.05.15,0,.12.05Zm-2-5.73h0v0h0Zm.09-.1h0v-.06l0,0Zm.07,1.13h0l0,.22v0l0-.06Zm.07-.39.18-.18.06,0v-.05h0l-.24.23Zm0,.07.06,0v0l-.08,0Zm.06-.45h0v0h0Zm0-.08h0v0l0,0Zm.14-.09h0l0,0v0Zm0,0,.08,0h-.08Zm0,.31h.06v-.06Zm.06-.76.23-.09.11-.09h.14l.06-.06.09,0,.07-.06,0,0h0l0-.09,0,0,0,0h0l-.11.05-.25.08-.27.16-.06,0h0Zm.14.34.11-.07-.11,0Zm.07-.2h0v0h0Zm.08.13,0-.06h0v0Zm0-.11h0v0Zm.16-.23,0,0v0h0Zm0,.23.12,0-.05-.05Zm0,.11.08,0v0h-.08Zm.19-1h0v0h0Zm0,.51h0l0,0,0,0h0Zm.25.54v0h.2l0-.07.15,0v0l0,0,0,0-.25.07h0l-.09,0,0,0,0,0Zm-.16-.85h0v0Zm.05.56h0v0h0Zm.14-.51h0Zm.09.55.08-.06,0,0h-.07l0,0Zm.46.1v.06h0v-.06Zm0-.72H118l0-.05h-.11Zm0,.51,0,0h0v0Zm0,8h.05L118,28l0,0H118Zm.2-8.46,0-.05,0,0v0Zm.07,6.16h0l-.12.17h0v0Zm0-6.21h0l0,0,0,0h0Zm.18,1v-.06l0,0-.09-.06v.09h0Zm0,4.95,0-.09,0,0v.09l-.15.26h0v-.06Zm.11-.22.06-.12v.16l-.06,0,0,0Zm0-5h0l0,0Zm.11.52v-.05l-.06,0v.09Zm0,.08v-.06l0,0v.08Zm0,4.21h0V25h0Zm.1-4.09h0l0-.07h0v0Zm.06,3.78v0l0,0Zm0,.31h0v0l0,0Zm0-3.82v-.11h0v.08Zm0,3.65h0l.06,0v0l-.08,0Zm0,.22h0v0h0Zm.07-3.69v0Zm0,3v-.09l0,.09ZM119,22h0v-.11l0-.18h0l0,.11v.09Zm0,1.94h0l0,0Zm0-.45h0v0l0,0Zm0,.27,0-.06v-.11h0Zm0-.47h0v0h0Zm0-1.11v-.1l0,.12Zm0,.24v-.18h0v.18Zm0,1.23.05,0,0,0h0Zm.21,2.13.09-.09,0-.07,0-.06v-.07Zm0-.94h.05l0-.09h0l-.05.05Zm.07-2.71v0l0,0,0,0Zm0,3.6h0v-.09Zm0-.31h0v0Zm.12.31,0-.08v.08Zm0-.91h.11v0h0l-.07-.11,0,.05,0,0Zm0,.24v0h0l0-.07h0V25Zm-.06.61h0l0,0h-.06Zm.07-.76h0Zm0,1.18,0,0,0,0Zm0-.71h0Zm0-.18,0,0h0Zm.11.24,0-.06V25.3h0Zm0-.15.08-.09v-.11l-.08.15Zm.06-.92h0v0h0Zm0,1.57h0Zm.05-1.48h0v0Zm.06,1.1h0l0,0h0v0l0,0-.05.06Zm.1-.5h0l.06-.09h0l0,0Zm.08.43,0,0h0Zm.09-.07v-.18h0v.18Zm.2-.47v0l0,0Zm0-.07h0v-.06h0Zm.15-.42h0v-.05h0Zm0,.49,0,0,.06,0v-.06h0l0,.06h0Zm.2-.42v-.07h0l-.06.07Zm0-1.69h0v0Zm.11,1.33v0Z"/><path class="a" d="M127.82,27.23l0,0,0-.07v0l0,0h0v-.06l.11-.34.06-.05v-.15l0,0,0-.06v-.1l0,.05V26.2l.05-.11v.13l0,.06v.07l0,0,0-.15.06-.13v-.27h0V26l0,0,0-.09,0,.09L128,26l0-.08v-.07l0,0h0l0-.36.08-.08v-.07l0-.07,0,0h0l0,.11H128v0l0,0,0-.13,0-.05.06,0v-.09l-.09,0,0,.08v-.15l.11-.09V24.4l-.08-.09v.05l-.06.07,0,0v-.26l.06-.09V24l-.06-.07.06-.15V23.6l0-.07v-.06l0,0,0-.33,0-.07-.06,0,0-.43h0l0,.34-.09-.09,0-.12.06-.09v-.49H128l0,.05v-.12h0v-.22l.07-.22v-.11l.06,0,0-.07,0,0v.29l0,.25,0-.07v-.13l.05-.11,0-.29.18-.12-.06-.38v.1l0,.26,0,0-.07,0,0-.17h0v.17h0V21.3h0l0,.17h0l0,0v-.06l-.08-.2,0,0,0,.07,0,.06v-.15l0,0,0-.09,0-.05-.06-.2.06-.05v-.06H128l0,.08v-.19h0l0-.19.06-.08,0,.22v0l.07.2h.08l0,.06H128v0h.05l0,0v.21h0v.15h0l.06-.22,0-.29v-.12l0,0-.06-.07v.07h0v-.11l0,0,0-.07-.06,0v-.08l0,0v-.07l-.06-.13V20l-.05-.11,0,0v.06h0l-.06,0-.07,0v0h0l0-.06.07.09,0-.12h.07l.06.07,0,.11,0,.05v0h0l0,0h0V20h0v0l-.13-.35,0-.07.08.07v-.14l0,0,0,0,.09-.09h0l.16-.22h.16l.06-.09.38.15.36.25.29.31.29.5.11.38,0,.06.13.63v.07l.11.69v.14l0,.09v.22l0,.09v.22l.07.43-.09.81V26.4l-.12.45,0,0,0,.07-.05.07v.24l-.13.31,0,0v.18l-.2.38-.07.09v.08l-.11.07-.11.18,0,.14-.07.2-.11.13-.06,0-.09.13-.07,0-.22.2-.25.16h-.11l.13-.05.07-.08,0,0-.09.11h-.08l-.05.05h0l-.11.13-.14.12-.06.09-.36.31-.11.06-.07.07-.18.11-.11.09-.32.14-.26.05-.09.06-.56,0h-.61l-.06-.13,0,0,0,0-.05-.06,0,0h-.2l-.11-.06h-.14l0,0,0-.09h-.09l-.06.06v.09h0l0-.06,0,0,0-.09h0l0-.11-.13,0-.07,0v.09h-.06l-.14-.09v-.07h.09v0l0-.06,0,.06,0,.09-.12-.09,0,0,0,0h-.06l0-.07,0-.2-.07-.09,0,.13h0l-.11-.13,0,0,.18.23-.13,0,0-.14h0l0,0V30l0-.09,0,0v-.07l0,0,0,0v.09h0l-.08,0v-.19l-.09,0-.11-.11,0-.18h0v.13l.14.31,0,0-.09-.18,0-.05v0l-.11-.2h0l.07.07V29.4l-.09-.25-.06-.09v-.13l.06-.07L123,28.7l0-.15-.07-.12,0,0,0,.06.1.27v.27h0l-.07-.2v-.11h0v-.09l0,.07v-.07l-.06-.09,0-.16,0,.12,0-.1v-.26h0l0,.18,0,0,0,.05v-.3l0,0V28l0-.09v-.38l0,0-.07.09,0-.15v-.14l0,0v-.06l0,0V27l0,0v-.12l0-.08,0,.13h0v-.78l0-.16,0-.05v0h0v-.2l-.07.09v-.2h.06v-.16l-.06,0v-.09l.06-.12v-.6l.06-.14,0-.24.06-.14,0-.06v-.22l0,0,0,0,0-.05v-.13l.06-.16v-.18h0v-.31l.07-.85,0-.07,0-.36v-.07l0-.93.07-.39.06.07,0,.13v0l.06-.26,0,0h0l0,0h0l.06,0,.07-.05.07-.13,0,0,.07-.13-.05.31h0l.1-.35h0l0,.06,0-.11.11,0v.06l.13-.11.12,0,0-.09h0l0,.15.07,0,0,.05h0l0,0,.1.11h.08l.12.13,0,.25.09.46v.18l.07.3.11,1,0,.4,0,.34.09,3.26,0,.3v.31l0,.18v.16l0,.06.13.68,0,.19V28l.09.1.13.47.15.18.23.24h.13l.41-.13.58-.3.4-.29,0,0,.15-.2.09-.05,0-.13,0,0,0-.05h0l.07-.06v-.07l-.07.07,0,0,.18-.35Zm-5.39-2.29,0-.09v0l0,.09Zm0,2.47,0-.05,0,0Zm.15.08v-.15h0Zm0-4.61h.06v-.09l0,0V22.7h0l-.09.09Zm0-.27h0v0h0Zm0-.11h0v0h0Zm0,.5h0v-.07l0,0Zm0,.27h0v-.12l0,0Zm0-1.26h.08v0h-.08Zm0,1.1,0-.05,0,0,0,.07Zm0-1.84h0v0h0Zm0,.43.06-.18-.06,0Zm0,.82h0v0h0Zm.13,6.5h-.06v-.14h-.05l0-.11-.06-.15h.07l0,.24,0,.07,0,.16h0Zm-.07-.76h0v0Zm0-6.52,0-.06h0l0,0Zm0,.58h0l0,0V22.1l0,.16,0,0Zm.08-.64h0v-.07h0Zm0-.12v0h0Zm.6,8.18v0l-.13-.23h0v.07l.08.07,0,.11Zm.09.55v0l0,0Zm.12-.51v-.09h0v0Zm.37.43v-.12h0l0,0v.11Zm1.06.47.06.06h-.06l0,0Zm.06.11,0,0,0-.05.1.11v0l-.19,0Zm1.84-2.31h0l0,0h0l-.07,0Zm.52-8.42v0h0l0-.09Zm0,.09v.11l0-.11Zm.09-.22v0l0,0Zm0,.38h0v0Zm.09,6.8v.09l-.09.14v-.07Zm0-7V20l0,.09v.09l0,0v-.06Zm.06,0,.05.09,0,.05v.1h-.07l0-.13Zm.05,6.63h0v.06l0,.05,0,.09v-.05Zm0-5.8v0l0,.07V21Zm0,.65h0l0,.17,0,0,0,0Zm0,5h0v.09l0,0Zm0-1.07,0,0,0,.09h0l0-.08Zm0,.89v-.15l0,0h0l0,.08v.14l0,0h0Zm0-5v0l0,0,0,0v.16h0Zm0,.89,0,0v0Zm0,.83v.2l0,0v-.22Zm0,2h0Zm.06.77v0l0,0Zm0,.09,0,0v0Zm0-4.39,0,.07v-.07Zm0,2.93,0,0v.15h0Zm0,.4v0h0v0Zm.09-1.09v-.29l-.07.18,0,.06Zm-.08-.2h0Zm0,.6h0v0l0,0v.07Zm.08-4.43v-.09h-.08v0Zm-.06,6.94,0,0h0Zm0-4.86h0v-.2l0,.08Zm0,.49h0l0-.16-.07.05Zm.09,3.27,0-.11-.06,0v0l-.06,0Zm0-5v.06h0v0Zm0,3.24h0v0h0Zm0-1.3h0v0Zm.07-2.75,0-.07,0,0Zm-.06,6.6h0l0,0Zm.09-5.25v0l0,0Zm0,.37v.16l0,0v-.26Zm0,1.33,0-.07h0Zm0,1.09,0,0v0h0Zm.09-4.05v-.07h-.06V20Zm-.06,3.79,0-.07,0,0Zm.06-.18h0Zm0,2.28h0v0h0Zm.07-5.8,0,0,0,0h0v0Z"/><path class="a" d="M135.44,19.23v-.06l.29,0h.06v0h.07v.06l.09-.06h0l0,0h0l.06.07v.05l0,0,0,0v0h0v-.08h.49v.08h0l0,0v.06h.16v-.08l0,0,0,0H137l.05,0,.17,0,.05.05h.11l.05,0h-.16l-.07,0,0,0,.16,0,0,.06,0,0,.05,0v.12h.06l-.08.12.1.13v.07l.05,0,0,0,0,.05.05.06v0l0,0-.09,0,0,0,0,0h0v.09l0,.09-.09.07,0,.06h.06v0l-.06.11.06.06,0,.14,0,.07v0l-.08,0-.14.12.05.09h-.05l0,0-.18.14-.22.05h-.36l-.32,0-.4,0h-.34l-.15,0h0v.16l0,.31V22l0,.07,0,.83v3.2l0,.18v.2l0,.11-.06.29,0,.07,0,.53v.38l0,.18v.41l-.09.29v.16h.05l0,.26v.36l-.05.07v.14l.07,0v.31l0,.16v.29h-.07l0,.09.07.09,0,.05h-.07l0-.15-.07.07h0v-.07l-.1.15-.16.07,0,0-.07,0,0,.06h0l0-.06-.09.09h0v-.16l-.07.14h-.05l-.06,0V30.9l-.07,0,0,0H134l0,.08h-.09l-.07.09-.15.09h-.05l0-.06-.11.09v-.14l0,.07,0-.05,0,0,0-.11h0l.06-.08,0,.09,0,0V31l0,0,.07-.18V30.5l0,0v-.15h-.07v-.09l.07-.05v-.09l-.07-.07v-.15l0,.11,0,.05v.09h0v0l0,0v0l0-.06v-.25l.07-.06v-.07l-.07.06-.07,0,0,.16h0v-.2h0l0,.26,0-.08v-.29h.06l0,0,.05-.07v-.11l0-.06,0-.19h0l0,0,0,.15h0l0,0,0,0,0-.19,0,0,0-.15V28.5l0,0h0v-.05l-.08-.09v-.24l-.06.22h0v-.2l-.07-.05v-.11l.07-.13v0h0v0h0l0-.2,0,0,0,0-.07,0,0,0v-.13h0l0,.07v-.21l0-.06,0,0v-.13l0-.22h0l0,.11,0-.27,0-.05v-.33l0,0H133l0-.06V26.4l0-.34,0,0,0-.05v-.09l0,0,0,0v-.13l0,0v-.11h.07l-.06-.09,0-.06,0-.05.06-.29V25h0V24.9l-.07-.07.07-.09V24.5l-.05.08,0-.06v-.21l0-.15v-.27l0-.15,0,0v-.34l0-.06V23.2l.07-.18h0V22.9l0,0,0-.13,0-.16.05-.36-.05-.11h0v-.85l-1-.13-.09,0-.27,0-.18-.11-.06,0-.23-.11h0L131,20.8h.14l0-.06v-.09h0l0,0,0,0,.07.07h-.09v0l.15.07h.22l.07-.07-.06,0-.21,0-.22-.11,0-.07,0,0-.2-.07H131l.05,0v-.05h0v0l-.06,0v0h0l0-.08,0-.05v0l0,0v-.2l.09-.18v-.07l.07-.06.26,0,.21-.07.82-.11v.07l0,0,.07-.07.53,0,.18,0,.41,0-.07,0v0l.09,0v-.06l.33,0,.18,0h.59v.11l.06-.05v0l.05,0,.45,0v.06Zm-4.28,1.33.06,0-.09,0Zm.11-.18h0v-.06l.08-.07-.08,0h-.1l-.06,0,0,0h.09v0l-.07.07Zm.38.2.11-.09.09,0,0,0-.29-.05v.05h0l0,0h0v0h-.05l0,0,0,0,0,0h-.07l-.08,0h-.11l.13.07h.15Zm-.25-.11v0h-.06l0,0Zm0,.44h0v0Zm.11-.56h0l.06-.13h-.06l0,0,0,.05Zm.12-.11.24,0-.06-.07-.12,0h-.06Zm.13.13.07-.06h0v0l-.06,0-.07,0h0v0Zm-.07.36h0v0Zm.18-.58h0l0,0h0Zm.2-.09v0l-.13,0v.07Zm.16.25.05,0-.16,0-.07-.06H132v.09l-.05,0ZM132,20l.22-.05v-.08h0l-.05.08,0,0,0-.09h0l-.07.09-.09,0Zm0-.16v0l0,0Zm0,.07h0v0h0Zm.13.18h.07l0,0h-.05l-.06,0Zm.23-.11.09-.05-.05-.07h0v.05l0,0Zm.24.11.22-.07,0,0h-.25l-.06.07Zm-.11-.31h0v0h0Zm0,.38h0v0h0Zm0-.18h0l0-.05,0,0,.2,0h.33l.05,0,.2-.09v0l-.07,0-.11,0,0-.06h-.06l0,0,0,0,0,0,0-.05-.1,0h-.15l-.07-.06h-.07v.06h0l0,0h0v0l-.06.05h0Zm.45-.22v0h-.11v0Zm-.09-.1H133v0h-.09Zm.13,5.31v0l0,0V24.9Zm0,3.22v.12h0v-.09Zm0,1,.05,0v.07H133Zm0,.57.05,0v.09l-.05-.05Zm0-10.5h0Zm0,7.6v.07h0v-.06Zm0,3.27,0,.05,0,.09h0Zm0-6h0v-.05h0Zm0,6.38v0h0v0Zm0-10.89h0v0h0Zm0,.1h0Zm0,7.22h0Zm0,1.46,0,0,0,.18,0,.06V28.5Zm0-.94v-.11l-.05.09Zm0,1.82v.08h0v0Zm0,1.69V31h0V31Zm0-4.14v-.08h0v.06Zm0,.47h0v-.08l0,0Zm0,.88,0,0V28l0,0Zm0,2h0v.2l0,0Zm0-10.44h0v0h0Zm0,10.33,0-.19h0l0,.21h0Zm0,1.11h.05l0,0h0v.13l.07.16v.05h0l-.07-.14Zm0-3.6,0-.11,0,0Zm0,1.41,0,0v0l0,0Zm0,1.52h0l0,.29,0,0,.09-.12v.14l-.05.07,0,.15h0l0-.27Zm.07-10.79,0,0h.05l.07,0v-.07h-.05l-.06-.06h0l0,0v.05Zm0,9.41v0l0,0Zm.05.49,0-.12v-.08h0l0,.09,0,.08Zm.06.92,0-.05-.07,0v.18l-.05-.07v-.2h0l0,.06,0-.07,0,.07,0,.29,0-.06Zm.07-10.89v-.06l0,0-.05,0,.07,0Zm.05-.18h0v0h0Zm.06.23v0h0v-.06l0,0h-.09l0,.08,0,.05Zm.11,0,.07,0v0h-.07Zm.05-.12.09-.08h-.09Zm.13-.22.09-.09-.15,0,0,.06,0,0Zm-.06.13h.06v-.08Zm0,.18h0v0h0Zm0,.07v0h0l0,0Zm.14-.11.06-.05-.06-.09v.1h-.13v.05Zm0-.22h0v0h0Zm.14-.12h.06v-.06Zm.13,0h0v-.06h0Zm.09,0h.14v-.06h-.14Zm.12.05h.06l.16-.11h-.11l-.11.07Zm0,.09h0l0,0h-.06Zm.1-.09h.09v0h-.08Zm.14-.05v-.06h0v0Zm.07,11.71V31l-.07-.07Zm0-.17h0Zm0-11.38h0v-.11l0,.07Zm.15-.18h0v0h0Zm.14,10.88,0-.13,0,.09v-.23l0,.07-.06,0V30l0,.07Zm0-10.85h0v-.06h0v.07Zm.06,10.11,0-.11,0-.07h0l0,.13Zm0-.94v0h0v0Zm0,2v-.07h0v.11Zm0-11.18h0v0h0Zm0,11.26h0v0l0,0Zm.09-11.21,0,0v-.09h-.06v.09Zm0,.09h.08v0h0Zm.49,0,0-.07v0h0l-.13,0v0h-.21v0l0,0,0,0h.07l0,0,.13,0v0Zm-.14,0v0h0Zm.25-.09.06,0h-.08Zm0,.27.07-.07v0H136l-.06.06Zm0-.16h0v-.05H136Zm.09,0h.09v0h0Zm.18-.13h.09v0h-.08Zm.29.06,0-.07,0,0v0h-.16v.13Zm0,.09.09,0h-.05Zm.16.2h0v0h0Zm.15,0h0l0-.09h-.07l0,0,0,0v0l0,0Zm0-.29h0l0,0Zm.43.18v-.06l0-.05h0v0h0Z"/><path class="a" d="M139,31.39h0v0h0l-.09-.24-.09-1.79.06-1.1,0-.15,0-.3,0-.31,0-.13v-.27l0-.05,0-.67,0-.14,0-.15,0-.14,0-.29-.06-.13,0-.07,0-1,0-.07,0,0,.05-.29,0-1.25,0-.14,0-.24.09-1.35v-.35l.13-.95.07-.24v-.47l.05-.11h.09l0-.14.09-.06,0,0,0,.07,0,.06.06,0,0-.2,0-.09.05,0,.17-.14h.07l.11-.11,0,0,.18,0,.2.09.2,0,.07.07,0,.24.17.38v.11l.05.05.07.25,0,.19,0,0V20l0,.09.06.38v.14l0,0v.05h.06l0,.13v.09l0,.05,0,.09h-.06l0,.11.06.05v.11l0,.13,0,0,0-.06,0,.11,0,0v0h0l0-.05.06.11,0,.38,0,0v.11h0v0l0,.05v0l-.06,0,0,.13v.09l0,.05,0,.08,0-.06.06.07v.08l0,.11,0,0v0l0,0-.09,0,0,.05-.06-.09,0,.24v-.06h0l-.07.17h.07l0-.07,0,.07h.07v-.1l.07-.11v.05l0,.09,0,0h.16l.13,0,.85,0h.13l.34-.07.09,0,.27,0,.26,0,.07,0h.09l0-.27,0,0,0,.23-.07-.05.07-.33v-.2l0-.14V22l.07-.38,0-.07,0-.11.06-.09-.06-.09.09-.11v-.07l.06-.09-.06-.07,0-.2,0-.05.12-.47v0l0-.05.16-.78.17-.27,0-.11h.22V19h.07l.09-.22.07,0V19l0,0,0-.11.14-.24h.09l.08.06v0l0-.09.07-.07,0,.06.07.05h.09l.06.07h.09l0,.13h.09l-.06.07,0,0v0l.07.08h0V19l0-.07h0V19l.09.09.15.38.05.33,0,0,.11.43,0,.27.05.13,0,.7,0,.89-.07.25.05.09h0v0l0,.14-.06.11,0,.05V23l0,0v.2l-.07.11v.11l0,0v.16l-.07.22V24l0,.09.06,0-.06,0,0,.22,0,.47,0,0,0-.18h0l0,.34h-.05V25l0,0v.06h0l0,.07,0,0v0l0,.06v0l0,.15,0-.09v.27l.07-.07,0,.07,0,.34,0,0,0,.2,0,0,.07,0,0,.49,0,.07,0,.14v0l0,.11,0,.25,0,.11,0,.11,0,.14h0l0-.05.05-.09-.05,0,.07-.34,0,0,0,0-.11.81v-.21l-.13.54,0,.41,0,0,.07-.22,0,0v.13h0l0-.09,0,.06h0V28.5l0,0v.27H146l0,0v.13l-.06.21,0,0V29l0-.05-.07.25,0,0,0-.05h0v.14l0,.28,0,0,0,0v0l0,.16,0,0,0,.31,0,0,0,0h.06v0l0,0,0,.14,0,0,.12-.13,0,0,0,0v-.07h.08v.21l0,0,0,0,0,.27h-.09v-.14h0l-.07.07v0h-.08l-.05.07,0,.05v0l0,.15-.06,0v-.13l0-.05,0,0,0-.07h-.09l0,.11-.06,0v0l0,0v0l0,0v0l0-.05-.09.12,0,.09-.09,0h0l0,0v-.11l0,0h-.05l0,0,0,.05v.09l0,0-.07,0-.05.11v-.12h0v.07h0v-.07l0,0-.06.23-.05,0,.05-.22,0-.05-.06.18,0,0,0,0,0,0,0,0V30.9l0,0v.18h-.06l0,0,0,0h0l-.05.07h-.06l0,.05-.06,0,0,.07-.27,0-.06,0v-.07h0l0,.05h0v-.11h.06v-.18l0-.05v-.09l0-.06.07,0,0-.24.06.13h0v-.2h0l0-.09v-.18l-.09.22h0l0,.05,0,0v.14l0,.09,0,0v-.12h0l0,.07,0,0,0-.16v-.2l.07,0,0-.11.05,0h.09v-.17h0l0-.17h0l-.09.22h0v-.2l0,0v0h0l0,.06,0,.16-.07.06,0-.06,0,0,0,0,0-.06v0h0l.07-.2.07,0,.08-.15,0-.07,0,0h0V29h-.06v.05l0,.08,0-.71,0,0,0-.16-.07,0,0-.35,0-.16V27.7l0-.16h0l-.05.07,0-.07,0,.22-.06-.06,0-.05.07-.33,0-.05,0,0v-.05l0-.13,0-.07v-.29l0-.05,0-.06v-.2h0l0,.15v0l0,.24v.27h0v-.51l0,0,0-.15,0-.07,0,0,0-.08v-.07l0,0,0-.07,0-.5h0l0-.28,0,.13-.06,0v.12h0l0-.16.09-.22h-.07v-.1l0,0,0-.09,0,0h-.07v0h-.07v0h-.06l-.38,0-.14,0h-.11v.09l-.15,0-.18,0h-.85l-.07,0-.05.07,0,.06,0,.14,0,.06,0,0v.27h0l0-.31-.07-.11v.31l0,0,0,.22,0,.09.07.06,0,0,0,0h0l0,.07v.31h0l0-.15h0l0,.11,0,0,.07,0h0l0,.4.07.07v-.07h0l.05,0,0-.06V27l0,.05,0-.05,0,.07,0,.06v.16l0,0v-.12h0l0-.09,0,0h0l0,.14,0,0v.07l0,0,0,.11,0,.09,0,0,.06-.07v.12l.06.07-.07.2,0,0v.23h.07v.17l0,.11-.06.1v.29h.06v0l0,.11-.07,0,0,0V29l.05.06,0,0v0h0v.18l-.06,0v0l0,0h0l0,.31h.07v.18l0,0v0l0,.06,0,0,0,.07,0-.12,0,0-.05.16,0,.06,0,0,0,.14.09-.14H141l0,.08,0,.18,0,.11v.1h0l-.05-.07-.09,0h-.06v.05l0,0h-.06l0-.06-.07.06,0,0-.18.12-.12.17L140,31l-.06,0-.07.09,0-.06-.07.11-.07,0,0,.09,0,.06,0,0,0,0h-.13v.05l-.09,0-.06,0,0,0,0,0,0,0h0v0l0,.09-.13-.11v.11Zm-.17-5.06,0-.09,0,0Zm.37-7,.07-.05v-.09l0-.06,0,0-.05.16,0,0Zm.48,11.8h0v0h0Zm1.09-5.22h0v-.05h0Zm.07-4.17h0V21.7h0Zm.16,4,0-.38,0,0v-.05l0,0,0,0v0l0,0,0,.2,0,.07,0,.22,0,0ZM140.94,21l0,0v-.07h0Zm0-.42h0Zm0,7.59h0v-.09h0Zm0,2.21h0l0-.16Zm0-9.58,0,0,0,0h0Zm0,8.87,0,0v-.06h0Zm0-8.56V21h0v0Zm.11.72h0v-.18h0v.07l0,0v0l-.06.06.06,0v0Zm-.09,0,0,0v0Zm0-.9h0v-.11l0,0Zm.11,1.57,0,0,0,.14Zm-.07.47h0V22.9h0Zm0,2.91,0,0V26l0,0Zm0-3.56,0,0v0l0,0Zm0-.92v-.06h0v0Zm0,4,0,0,0,0v0Zm0-3.36v0h0v0Zm0,4.25h0v.14h0Zm0,.23v.06l0,0Zm0,.11,0,.06v-.08Zm0,.16,0,.08v-.08Zm0-4.6h0l0,0,0,0,0,0Zm0,.67,0,0v-.13l0,0,0,.07Zm0,3.19v.15l0,0V26Zm0,.58v.09h-.06l0-.09Zm.07-1.19v0l0,0Zm1-.31h0v0h0Zm.69-.25h0v0h0Zm.34,5.62v-.22h0l0-.07,0-.05h.07v.09l0,0v.17l0,.14h0v-.07Zm0-.61V30l0-.09Zm0,.77,0,.09,0,0,0-.11Zm0-1.43h0l0,.08h0v0l0,0v.27h0l0-.4Zm0,1.59V31l0,0v-.22Zm0-4.39v.06h0v-.06Zm0,1.12v-.2l0,0v.31h-.07l0-.07Zm0,.84,0,.09,0,.1.06.06-.07,0,0,0Zm0,.34,0,.2,0,.09v0l0,.05,0-.29Zm0-2.86,0-.21h0l0,.1h0l0,.17h0l0,.09v0Zm0,.38,0,.09,0,0,0-.09Zm0,1v.06l0,0Zm0,3.84V31h0l0-.09v-.13l0,.06h.06l0,.07,0,.09v.07l0,.08v.1l-.11-.1Zm0-3.29,0,.14,0,.25v0l0,0,0-.4Zm0,1.23V29h0v0Zm0-.55,0,.08h0l0-.08Zm0,2.26h.07l0,0,0,0-.06,0v0Zm.05-3.72,0,0v0Zm0,3.27h0l0,0Zm.07-1.48,0-.16,0,0v.18Zm0,.07h0v0h0Zm.07-6.18.11-.6v-.34h0l-.08.18v.36l-.07.11,0,.13h0l0,0Zm0,5.39,0,0V28l-.07.06Zm0,1.12v0l0,0Zm0,.23v-.09l0,.09Zm0-.14h0v0l-.05,0Zm0,1.51h0V30.7h0Zm0-2.6h0v0h0Zm.07-6.54V21.5l0,.09Zm0,8.28,0,0v0Zm0,1.06,0,0,0,0Zm0-9.88h0v0h0Zm0,.12h0v-.07h0Zm.11-.66,0-.11h0ZM144,31V30.9h0v0Zm.09-.7h0v-.08h0Zm0,.18.06-.11-.07,0v.13Zm.44.3.07,0,0,0h-.07v0Zm.12-.81h0l0-.22,0,0Zm0-.54v-.07l0,0Zm.07-10.36h0l-.09,0v0Zm0,11.73v0l0,.06v-.08Zm.16.15h0v0Zm0-.2h0v0h0Zm.15-2.1v-.05l0,0Zm0,1.05V29.6l-.05.09Zm0,.83h0v-.05h0Zm.13.07,0,.09h0v-.09Zm0-1.28h0v-.07l0,.05Zm0,.74h0v-.12h0Zm0-10.35,0,0v-.07l0,0Zm0,9.81h.06v-.13l-.06,0Zm.09.67,0-.33.05-.27,0,0,0,0,0,.36-.06.29Zm0-11.13h0v0h0Zm0,9.47,0,0v-.07l0,0,0,0Zm0,.61h0v-.05h0Zm.05-.09V29l0,0Zm0,1.5h0l0-.09,0,0-.05.06Zm.09-1.36,0,0,0,0,0,.05Zm0-9.47h0l0,0Zm0,9.85,0-.07,0,0,0-.12,0,0,0-.09v-.09h0l-.05.18Zm0-.47,0,0,.07-.38h-.05l0,.2Zm0-9.41v0Zm0,8.78,0,0,0,0Zm.06.36h0l0-.05.06-.09,0-.16,0-.18,0,0,0,.18,0,0Zm.12.49,0,.43-.07.08v-.29Zm0-1v-.11l0,0v0Zm0,1.54,0,0v0Zm.05.07V30l0,0v-.07Zm0-.24,0,0,0,.09,0,0Zm0-1.84h0v0h0Zm0,2.19v0h0v0Zm.06.45v.09l-.06,0v-.07Zm0-2.21v.17h0v-.1Zm0-1.17h0v-.22h0l0,.07v.15Zm0-2.15h0l0,0Zm0,.65,0-.09,0,0h0l0-.22-.05-.07h0v.09l0,0,0,.05,0,.07,0,0Zm0-.58h0l0,0h0Zm0-.11h0l0-.07,0-.24h0l0,.08,0,0Zm0,1.34h0v-.11l0,0Zm.07,1.66v.15h0V28Zm0-1.52h0l0-.09h0Zm0,.71,0,0,0,0Zm.06-2.15h0v0Zm.07-.78v.29h0v-.29Z"/><path class="a" d="M153.41,31.57l0,.09-.07-.11v0l0,.18-.05-.07h0l0-.09,0,.05-.06.11-.05-.09h0v-.05l-.05,0,0,0v0h-.05v.09l0,.07v0l-.06,0-.07-.23v-.07l0,0,0,.08.06-.08v-.1l.06-.06V31l0,0,0,0v.18l0,0-.06,0v.11l0,0,0-.22v-.29l0-.2,0-.07v-.23l0,0,0-.18,0-.07-.06.19,0-.12,0-.06,0-.1.06-.06,0-.49,0,0,0,0h0v-.16l0-.07v-.27l0,0v-.2l0-.27.05,0v-.06h0v-.07l.06-.11,0,0,0,.38,0,.07v.07l.06-.18,0-.05v-.09l.1,0v-.09l-.08,0h0v-.29l-.06,0v-.09l.06-.13v-.14l0,0-.06.09V28l0,0,0,0h0l0,.23,0,0,0,0,0-.25,0-.06v-.32l.05-.06v0h-.05v-.11l.05-.08,0,.19,0-.06h.06l0-.13v-.14l-.06,0,.06-.07v-1l0,0,0,0,0,.55,0,.39-.05.06v.18l-.07,0,0-.25h0l0-.11,0,0,0,.17v-.31l0,.09h0v-.38h.07v-.05l0-.08,0,0,0-.11,0,0v-.11l0,.09,0-.5,0-1.21,0,0,0-.05v-.33l0-.16h0v-.2l0-.05v-.11l0,0v-.05h0l-.05-.37v-.38l0-.05v-1l0-.18.06-.95v-.24l.13-.38.07-.12,0,0-.06,0v0l.11-.13.09-.18.11-.07,0,0h.05v0l0-.05h.09l.09,0v0h0l0,0,.06,0,.07,0,.09,0,.24-.07h.05l0,0,.21-.1.08,0h.09l0,.06h-.11v.06h.09l.06,0,.07,0,0,0,0-.14,0,0,.1,0,0,0v0l-.09,0v0h.22l.16,0,0-.07,0,0v0h-.09l0,0,.06,0h0l.11,0,0,0-.09.11h.16l0,0h.09l.32,0,.13.07.11-.05,0-.13h.09l0,0v0h.07l0,0h0l.06,0,0,0h.18l.08-.09h0l0,.06h0l0-.11h.33v0l-.13,0,0,0h.11l0,0v-.08H157l0,.08,0,0,0,0,.11,0,.09,0h0l.07,0,.06,0,0-.11h0V19h.12l0-.08,0,0,0,0h0V19h.18v0l.1,0v-.05h.12l0,.05.08,0v0h.14l0-.05h0v.05l.06,0,0,0h.17v-.11l0,0v.05l0,.08.11-.06,0,0,0,.07,0,0,.17.29,0,.06h0l0,0h-.11l.09.15.07,0,.09.09v0l-.11,0-.05.06v.09h.13v0l0,0v0h-.09l.06.05v.11l.07.13-.07.12v.06l-.09,0v.1l-.11.14.09.09v.11l-.4.29-1.5.16h-.05l-.75.05-.09.08h-1.33l-.22,0,.09.65v.31l0,.31H155l.06.05.09-.09v.24h0v-.15l0,0,0,0h0l0,.07h.06l0,.06h.09l.08-.07v.05l.09-.07v-.15h0l0,.18h.09l.09.09,0,0,0-.06.05-.07v.07h.15v0l0-.07h0l0,0h.08l0-.14h0v.05l0,0,0,0,.13,0,.05-.15h.05v.15h0l0,0,0,0,0,0v0h.11l.06,0,.14-.09,0,.09.11-.05h0l0-.06h.07l0,.06v.07l.07,0,0-.09v.11h.15l0,0,.11.05v.11l.05,0v.07l0,.05,0,.06h.09l0,.05v.11h0l-.05,0-.13,0v.07l.13,0,0,0,0,0h.07v.47l-.07,0V24l-.08,0h0v.08l0,0,0,0,0,0-.12.13.07,0,0,0-.23.16-.11,0H157l-.32.07h-.15l-.31,0h-.47l0,0h-.45l-.33,0,0,1.9,0,0,0-.11,0,0v0l0,0,0,.07.08.13,0,0,.06.3-.06.24,0,0v.47l0,0,0,0,.07.17v.18l0,0,0-.18h-.05v.09l0,0v0h-.05v0h.05l0,.09v.24l0,0v.07l0,0,0,.09.06.09-.07.16,0,.06.09.11v.3l0,.13h0v-.34l0,0v.9l0,0v-.39l0-.09,0,0v.44l0,.07,0,0,0,.09v.54l.07.07,0,.13h0l0-.13h0v.14l.07,0,0,0,0-.06h0l0,.06h0l0,.07,0,0v.11l0,0,0-.09v-.05h0l0,.05h0v.11l0,.07,0,0-.05-.06,0,.09-.09-.05-.07.13h-.06l0-.09v.14l-.07.13v-.27l0-.09,0,.07,0-.07,0,.07,0,0h0l0,.06,0,0,0,0,0,.09-.07,0h-.13l0,0-.09,0,0,0h-.07v.32h0l0-.16Zm-.76-2,0-.22,0,.15v.29l-.07,0Zm0-5,0,0v0h0l0,0Zm0,.51,0,0,0,0Zm0,.18h0v0l0,0Zm.07.67.09-.09,0-.15,0-.07,0,.05v.15h0l0-.27h0V26Zm0-2.15h0v-.1l0,0Zm.07.74v-.09h0v.05Zm0,2v-.06l0,0Zm0,2.76.08-.09-.06-.11V29l0-.06-.06-.05h0v.36Zm0,1.12.06-.1,0,0v-.74l0-.06,0-.09h0V30h.06v.09l0,0v.11l-.05.07v.06Zm0,.58v-.14h0V31Zm0-.22,0-.07v-.3l0,.09-.07.07v.11Zm0-5.89h0l0,0Zm.06.74.09-.12,0,0,0,0-.06-.06,0,0v.13Zm0,5.46V31h0v0Zm0-3.23v-.07h0l0,0Zm.11-1v-.18h-.05Zm0,.11,0-.06h0Zm0,.09v0l0,0v0Zm0-7.66,0,0h0Zm0,6.9h0v-.07h0Zm0,4.34.05-.17h.05v-.06l0,0,0-.09,0,0v.33Zm0,.1h0v0h0Zm0-1.69h0v-.15h0Zm0,.86v-.05h0v.05Zm0,1.63v-.05l0,0v.07ZM153,27l0-.06h0Zm0,.1h0v-.05l0,0Zm0,2.5,0-.09h0Zm.05-1V28.5l0,.11Zm0,2.08,0,0,0,0Zm0-3.79V26.8l0,0v.11Zm0,.19h0l0-.1h-.06Zm-.06,2.77h0l0-.07,0-.06,0,.06Zm0-3.18h0v-.06h0Zm0,4.52,0,0,0-.06Zm.08-4.11.07,0V27l-.07.05,0,.08Zm.05,2.5v0l0,0Zm0,.92,0-.05v-.06l0,0Zm.09-3.05V27.4l0,0Zm.05,3.28,0,0v-.31l0,0,0,.29Zm0-3.47v-.07h0v0Zm.13,3.44v-.06h0v0Zm.14.11v0h0l0,0Zm.11-11.46.06-.05v0l0,0-.06,0v0Zm.13-.07h0v-.06h0Zm.11,12.36,0,.09-.07.07v.06H154v-.13Zm0-12.42,0,0h0Zm.56-.11,0,0v-.05Zm.07,9.58v-.05l0,0Zm0-9.63v0l0,0v0Zm0,7.66h0v-.05h0Zm0,3.27v0h0v0Zm0,.67v-.14l0-.06v.2Zm.05-2.94,0-.15v-.45l0-.05,0-.08V26.8l0,0v.39l0,.22,0,.09Zm0-1.34v-.05l0,0Zm0,2v0h0v0Zm0,2.26v-.11l0,0v.24h0V30.7Zm0-4.45h0v-.07h0Zm0,2.84,0,0V29Zm.09-6.25h0v0h0Zm.18,1.24v0h0Zm.15-5v0l-.06,0v0Zm0,3.87v0h0Zm.11-.33h0v.05l-.11,0,0,0Zm0,1.45h0V24l0,0Zm0-.93h0v0Zm.4.38h-.13v.05Zm-.06,1h0V24.4h0Zm.06-1.41h.05v0h-.05l0,0Zm0,.16h0l0,0ZM156,19V19h0l0,0Zm.07,4.07v0L156,23h0V23Zm-.07,1h.28l0,0h.24l.28-.05H157v-.05h-.27l-.31.05h-.05l-.22,0H156Zm.12-1.46,0,0,0,0Zm0-3.62v0l0,0Zm0,4.49h0v0h0Zm0,.38.05,0,0,0h0Zm.29-1.45v.07h-.08v-.07Zm.11-3.36V19h0V19Zm.07-.24v0h0v0Zm.09,3.71v0h0v0Zm.18-.07,0,0,0,0Zm.27-3.55,0,0h.12v0Zm.16,5.05h0v0l0,0Zm.31-1.07,0,0h-.06Zm.23-4v0h0l0,0Zm.17,4.39,0,0,0,0h-.09l0,0,0-.07Zm-.13.2v-.06h.2v0l0,0,0,0H158Zm0,.32H158l.1-.07h.11l0,0-.22.09,0,0Zm1.16-3.63h0v-.05h0Zm.18-.49,0,0,0,0,0,0Z"/><path class="a" d="M163.8,30.77l-.09,0,0,0-.09,0h-.05l0,0-.05,0h-.09l0-.05v0h-.06l-.09,0h-.11l-.25-.05,0,0h-.09l-.16-.1-.18,0-.52-.36-.19-.22-.27-.25-.38-.47-.29-.56-.12-.38-.06-.09-.36-.89-.14-.72-.09-.76,0-.85v-.07l-.05-1.05.18-2.62.19-1.12.11-.2.15-.13h0l.06,0,.07,0,.09-.09.05,0,.13-.16.14-.09h0l0,0,.17-.07.29,0h.05l.15,0,.19.22.17.32.16,1.12,0,1,0,.18,0,.19,0,2.51.05.11.09.63v.11l.08.38.23.72.07.11,0,.25.2.76.45.72.31.08.52.09.81-.35.15-1.26.09-.36v-.28l0-.16v-.07l.07-.78v-.87l0-.32,0-.51,0-.09,0-.18v-.05l-.05-.56v-.25l0-.08,0-.23-.12-1.79-.06-.33-.14-.57,0,0,.07,0,0-.11.09-.05.07-.18.09,0,0,0,.05,0,.09,0,0-.15.11,0,.07-.09H166l.11-.09.14-.06h.24l.23.15.07.11.19.39,0,.06.2.52v.07l0,.1.06.32.09.24,0,.18v.07l.12.32,0,.31,0,.25v.13l.13.36,0,.47,0,.18,0,.4,0,.13,0,.43,0,.47v.49l0,.18v.29l0,.12-.05.4v.71l-.06.34-.16.38v.34l0,0h-.07V28l-.07,0v.09h.07l-.12.15v.11l-.1.18-.12.12,0,.17.06.07,0,0h0l-.09.05,0,0-.2.18,0,0,0,.11H167l0,.07-.07.07h-.15l-.18.15,0,0-.2.06h-.09l0,0-.05,0-.13.14,0,.09L166,30l0,.06-.18.25-.05.14-.33.24-.21.07,0,.05-.42.1-.61,0,0,0-.09.06,0-.08Zm1.77-3.05v0l-.07.16Zm0-7h.05l0-.05,0,0Zm0,.17,0,0v0h0Zm0,6.9h0v0l0,0Zm0-7h0Zm0,6.17V27l0,0Zm0-.49,0-.11h0v0h0v-.08l.06-.1,0,0-.11.11,0,.12Zm0,1.14v-.08l0,0Zm0-5.86h0l0,0Zm.06,5.28,0,0v0h0l0,0Zm0-2.22v0h0v0Zm0-4.76h0v0h0Zm0,1.43v0Zm.05,3.2v-.06h0l0,0Zm0-5.15,0,0v0Zm0,5.94h0v-.15l0,.13Zm0-5.24h0v0h0Zm0,4.38v0Zm0,2.35.06-.13,0-.07,0,.09V27Zm0-7,0,0v0h0Zm0,4.48.06,0v-.12l0,0,0,0v.07l0,0Zm0,1.84h0v0Zm.06-5.27,0,0,0,0Zm0,6v0l0,0Zm.06-2.53v0h0Zm0,2.45V27l0,0Zm0-6.57V20.4h0v.06Zm0,1.41,0-.06v0h0Zm.06,4.48,0,0v-.09h0l0,.11Zm0,.56v-.09h0l0,0Zm0-6.67h0v0ZM166,26v0Zm0,1.12h0v0Zm0,2.76h0v0Zm0-7.19,0,0,0,0Zm0,1.19v0l0,0Zm0,1.61,0-.05v0h0Zm0,1.72h0v-.06Zm0-6.72h0v0h0Zm0,.23h0v-.05h0Zm0,.24h0v-.06h0Zm0,2.72v0Zm.06.85,0-.05v-.09l-.08.09Zm0,1v-.07l0,0Zm.92,3.53,0,0v-.09h0l0,.09Z"/><path class="a" d="M172.57,19.23v-.06l.29,0h0v0H173v.06l.09-.06h0l0,0h0l.06.07v.05l0,0,.06,0v0h0v-.08h.49v.08h0l-.06,0v.06H174v-.08l0,0,0,0h.13l0,0,.17,0,0,.05h.11l.05,0h-.16l-.07,0,0,0,.17,0,0,.06,0,0,.05,0v.12h.06l-.07.12.09.13v.07l.05,0,0,0,0,.05.05.06v0l0,0-.09,0,0,0,0,0h0v.09l0,.09-.09.07,0,.06h.06v0l-.06.11.06.06,0,.14,0,.07v0l-.08,0-.14.12.05.09h-.05l0,0-.18.14-.21.05h-.37l-.32,0-.4,0h-.34l-.15,0h0v.16l0,.31V22l0,.07.06.83v3.2l-.06.18v.2l0,.11-.06.29,0,.07,0,.53v.38l0,.18v.41l-.09.29v.16h.05l0,.26v.36l-.05.07v.14l.07,0v.31l.06.16v.29h-.08l0,.09.07.09,0,.05h-.07l0-.15-.07.07h0v-.07l-.09.15-.17.07v0l-.08,0-.05.06h0l0-.06-.09.09h0v-.16l-.08.14h-.05l0,0V30.9l-.08,0,0,0h-.09l0,.08H171l-.07.09-.15.09h-.05l0-.06-.11.09v-.14l0,.07,0-.05,0,0,0-.11h0l.06-.08,0,.09,0,0V31l0,0,.07-.18V30.5l0,0v-.15h-.07v-.09l.07-.05v-.09l-.07-.07v-.15l0,.11,0,.05v.09h0v0l0,0v0l0-.06v-.25l.07-.06v-.07l-.07.06-.07,0,0,.16h0v-.2h-.06l0,.26,0-.08v-.29h.06l0,0,.05-.07v-.11l0-.06V29h0l0,0,0,.15h0l0,0,0,0,.05-.19,0,0,0-.15,0-.05V28.5l0,0h0v-.05l-.07-.09,0-.24-.06.22h-.05v-.2l-.07-.05v-.11l.07-.13v0h0v0h0l.06-.2,0,0,0,0-.07,0,0,0v-.13h0l0,.07v-.21l0-.06,0,0v-.13l0-.22h0l0,.11,0-.27-.05-.05v-.33l0,0h-.05l0-.06V26.4l0-.34,0,0,0-.05v-.09l0,0,0,0v-.13l0,0v-.11h.07l-.06-.09,0-.06,0-.05.06-.29V25h0V24.9l-.07-.07.07-.09V24.5l-.05.08,0-.06v-.21l0-.15v-.27l0-.15,0,0v-.34l0-.06V23.2l.07-.18h0V22.9l0,0,0-.13,0-.16.05-.36-.05-.11h0v-.85l-1-.13-.09,0-.27,0-.18-.11-.05,0-.24-.11h0l-.16-.09h.14l0-.06v-.09h0l0,0,0,0,.08.07h-.09v0l.14.07h.22l.07-.07-.06,0-.21,0-.22-.11,0-.07,0,0-.2-.07h.07l0,0v-.05h0v0l-.06,0v0h0l0-.08,0-.05v0l0,0v-.2l.09-.18v-.07l.07-.06.26,0,.21-.07.82-.11,0,0,0,0,0,0,.07-.07.53,0,.18,0,.41,0-.07,0v0l.09,0v-.06l.33,0,.18,0h.6l0,0,0,0v.05l.05-.05v0l.05,0,.46,0v.06Zm-4.29,1.33.06,0-.09,0Zm.11-.18h.06v-.06l.07-.07-.07,0h-.11l-.06,0,0,0h.09v0l-.07.07Zm.38.2.11-.09.09,0,0,0-.29-.05v.05h0l0,0h0v0h-.05l0,0,0,0,0,0h-.07l-.08,0h-.1l.12.07h.15Zm-.25-.11v0h-.06v0Zm0,.44h0v0l0,0Zm.11-.56h0l.06-.13h-.06l0,0,0,.05Zm.12-.11.24,0-.06-.07-.12,0h-.06Zm.13.13.07-.06h0v0l-.05,0-.08,0h0v0Zm-.07.36h0v-.08l0,0Zm.18-.58h0l0,0h0Zm.2-.09v0l-.13,0v.07Zm.16.25.05,0-.16,0-.07-.06h-.06v.09l-.05,0Zm-.22-.36.22-.05v-.08h0l-.05.08,0,0,0-.09h0l-.07.09-.09,0Zm0-.16v0l0,0Zm0,.07h0v0h0Zm.13.18h.07l0,0h-.05l-.06,0Zm.24-.11.09-.05-.06-.07h0v.12Zm.23.11.22-.07,0,0h-.25l-.06.07Zm-.11-.31h0v0h0Zm0,.38h0v0h0Zm0-.18h0l0-.05,0,0,.2,0h.33l.05,0,.2-.09v0l-.07,0-.11,0,0-.06h0l0,0,0,0-.06,0,0-.05-.1,0H170l-.07-.06h-.07v.06h0l0,0h0v0l-.06.05h-.05Zm.45-.22v0H170v0Zm-.09-.1h.09v0H170Zm.13,5.31v0l0,0V24.9Zm0,3.22v.12h0v-.09Zm0,1,.05,0v.07h-.05Zm0,.57.05,0v.09l-.05-.05Zm0-10.5h0Zm0,7.6v.07h0v-.06Zm0,3.27,0,.05,0,.09h0Zm0-6h0v-.05h0Zm0,6.38v0h0v0Zm0-10.89h0v0h0Zm0,.1h0Zm0,7.22h0Zm0,1.46,0,0,0,.18,0,.06V28.5Zm0-.94v-.11l-.05.09Zm0,1.82v.08h0v0Zm0,1.69V31h0V31Zm0-4.14v-.08h0v.06Zm0,.47h0v-.08l0,0Zm0,.88,0,0V28l0,0Zm0,2h0v.2l0,0Zm0-10.44h0v0h0Zm0,10.33,0-.19h0l0,.21h0Zm0,1.11h.05l0,0h0v.13l.07.16v.05h0l-.08-.14Zm0-3.6,0-.11,0,0Zm0,1.41,0,0v0l0,0Zm0,1.52h0v.29l0,0,.09-.12v.14l0,.07,0,.15h0l0-.27Zm.07-10.79,0,0h0l.07,0v-.07h-.05l-.05-.06h0l0,0v.05Zm0,9.41v0l0,0Zm.05.49,0-.12v-.08h0l0,.09,0,.08Zm.06.92,0-.05-.07,0v.18l0-.07,0-.12v-.08h0l0,.06,0-.07,0,.07,0,.29,0-.06Zm.07-10.89v-.06l0,0-.05,0,.07,0Zm.05-.18h0v0h0Zm.06.23v0h0v-.06l0,0h-.09l0,.08,0,.05Zm.11,0,.07,0v0h-.07Zm.05-.12.09-.08h-.09Zm.13-.22.09-.09-.15,0v.06l0,0Zm-.06.13H171v-.08Zm0,.18h0v0h0Zm0,.07,0,0v0h0l0,0Zm.14-.11.06-.05-.06-.09v.1H171v.05Zm0-.22h0v0h0Zm.14-.12h.06v-.06Zm.13,0h0v-.06h0Zm.09,0h.14v-.06h-.14Zm.13.05h.05l.16-.11h-.11l-.1.07Zm0,.09h0l0,0h-.05Zm.09-.09h.09v0h-.08Zm.14-.05v-.06h0v0Zm.07,11.71V31l-.07-.07Zm0-.17h0Zm0-11.38h0v-.11l0,.07Zm.14-.18h0v0h0Zm.14,10.88,0-.13,0,.09v-.23l0,.07-.06,0V30l0,.07Zm0-10.85h0v-.06h0v.07Zm.06,10.11,0-.11,0-.07h0l0,.13Zm0-.94v0h0v0Zm0,2v-.07h0v.11Zm0-11.18h0v0h0Zm0,11.26h0v0l0,0Zm.09-11.21,0,0v-.09h-.06v.09Zm.06.09h.07l0,0h0Zm.48,0,0-.07v0h0l-.12,0v0h-.22v0l0,0,0,0h.07l0,0,.13,0v0Zm-.14,0v0h0Zm.25-.09.06,0h-.08Zm0,.27.07-.07v0h-.05l-.06.06Zm0-.16h0v-.05h-.05Zm.09,0h.1v0h-.06Zm.19-.13h.09l0,0h-.07Zm.28.06,0-.07,0,0v0h-.16v.13Zm0,.09.09,0h-.05Zm.17.2h0v0h0Zm.14,0h0l0-.09H174l0,0,0,0v0l0,0Zm0-.29h0l0,0Zm.43.18v-.06l0-.05h0v0h0Z"/><path class="a" d="M179.74,30.77l-.09,0,0,0-.09,0h-.05l0,0-.05,0h-.09l0-.05v0h-.06l-.09,0h-.11l-.25-.05,0,0h-.09l-.16-.1-.18,0-.52-.36-.19-.22-.27-.25-.38-.47-.29-.56-.12-.38-.06-.09-.36-.89-.14-.72-.09-.76,0-.85v-.07l0-1.05.18-2.62.19-1.12.11-.2.15-.13h0l.06,0,.07,0,.09-.09.05,0,.13-.16.14-.09h0l0,0,.17-.07.29,0h.05l.15,0,.19.22.17.32.16,1.12,0,1,0,.18,0,.19,0,2.51.05.11.09.63v.11l.08.38.23.72.07.11,0,.25.2.76.45.72.31.08.52.09.81-.35.15-1.26.09-.36v-.28l0-.16v-.07l.07-.78v-.87l0-.32,0-.51,0-.09,0-.18v-.05l-.05-.56v-.25l0-.08,0-.23-.12-1.79-.06-.33-.14-.57,0,0,.07,0,0-.11.09-.05.07-.18.09,0,0,0,.05,0,.09,0,0-.15.11,0,.07-.09h.09L182,19l.14-.06h.24l.23.15.07.11.19.39,0,.06.2.52v.07l0,.1.06.32.09.24,0,.18v.07l.12.32,0,.31,0,.25v.13l.13.36,0,.47,0,.18,0,.4,0,.13,0,.43,0,.47v.49l0,.18v.29l0,.12-.05.4v.71l-.06.34-.16.38v.34l0,0h-.07V28l-.07,0v.09h.07l-.12.15v.11l-.1.18-.12.12,0,.17.06.07,0,0h0L183,29l0,0-.2.18.05,0,0,.11h.05l0,.07-.07.07h-.15l-.18.15,0,0-.2.06h-.09l0,0-.05,0-.13.14,0,.09-.07,0,0,.06-.18.25-.05.14-.33.24-.21.07,0,.05-.42.1-.61,0,0,0-.09.06,0-.08Zm1.77-3.05v0l-.07.16Zm0-7h.05l0-.05,0,0Zm0,.17,0,0v0h0Zm0,6.9h0v0l0,0Zm0-7h0Zm0,6.17V27l0,0Zm0-.49,0-.11h0v0h0v-.08l.06-.1,0,0-.11.11,0,.12Zm0,1.14v-.08l0,0Zm0-5.86h0l0,0Zm.06,5.28,0,0v0h0l0,0Zm0-2.22v0h0v0Zm0-4.76h0v0h0Zm0,1.43v0Zm.05,3.2v-.06h0l0,0Zm0-5.15,0,0v0Zm0,5.94h0v-.15l0,.13Zm0-5.24h0v0h0Zm0,4.38v0Zm0,2.35.06-.13,0-.07,0,.09V27Zm0-7,0,0v0h0Zm0,4.48.06,0v-.12l0,0,0,0v.07l0,0Zm0,1.84h0v0Zm.06-5.27,0,0,0,0Zm0,6v0l0,0Zm.06-2.53v0h0Zm0,2.45V27l0,0Zm0-6.57V20.4h0v.06Zm0,1.41,0-.06v0h0Zm.06,4.48,0,0v-.09h0l0,.11Zm0,.56v-.09h0l0,0Zm0-6.67h0v0ZM182,26v0Zm0,1.12h0v0Zm0,2.76h0v0Zm0-7.19,0,0,0,0Zm0,1.19v0l0,0Zm0,1.61,0-.05v0h0Zm0,1.72h0v-.06Zm0-6.72h0v0h0Zm0,.23h0v-.05h0Zm0,.24h0v-.06h0Zm0,2.72v0Zm.06.85,0-.05v-.09l-.08.09Zm0,1v-.07l0,0ZM183,29l0,0v-.09h0l0,.09Z"/><path class="a" d="M185.52,31.15l0-.43,0-.34.06-.18V30l0,0,0,.25h0l0-1.28,0-.41V27.2l0-.09-.1-1.85,0-.18-.06-1.15,0-.08V23.4l-.13-1.17-.07-.35v-.25l0-.11-.09-.87v-.47L185,20v0l.2-.42.23-.21,1.18-.55,1.33-.2h1.14l.15,0h.18l.36.07.05,0,.22.07.65.29.07.07.24.11.4.42.18.27.25.47v.14l.05.11,0,.4,0,.09,0,.7-.11.18,0,.22-.11.15-.05.12-.33.51-.09.2v.09l-.07.11,0,0-.38.44-.29.12-.09.09-.29.22-.09.09-.18.11-.09.11.57.57.08.13.09.09.07.11.14.13.69.88.09.18,0,.06.38.67,0,.1.1.15.1.27.08.11,0,.18.2.45,0,.06.18.36v.14l-.07.11h0l0,.09h0v.07l0,.15,0,.05v.13h-.09l-.07,0v.22h-.06l0-.06-.07,0v.11l-.08,0,0,0,0,.09-.05,0h-.05l0,.16h-.06l-.07.05-.16.06,0-.06,0-.05h-.07v.14h-.18v0h.05l-.05,0h-.09l-.13.18v0l0,0v.09l0,0,0,0-.24-.06-.07-.05,0-.11-.06-.05h0v.08l-.09,0,0-.09-.06-.07v-.09l-.05-.07-.11-.26,0-.14-.09-.07-.07,0,0-.06h0l0-.05,0,0,0-.15-.18-.2v-.09l-.12-.18-.13-.41-.13-.13-.07-.14V28.3l-.13-.11-.07-.13-.11-.28-.1-.06-.15-.32-.4-.51v0l-.37-.32-.3-.24,0,0v1.06l0,0,0,.94-.07-.56,0,0v0l0,.11,0-.53,0-.14,0-.06-.05-.1.07,0v-.13l0,0-.07.05,0-.7-.07-.06,0,0v.07h.05l0,.54,0,.13v.34h.05v.91l0,0,0,.07h0l0,.07h0v-.2l0,0h0V28l-.06,0,0,0h-.07v.09l.07.14-.05,0v.13l0-.06v.09l0,0,0,0v.74h0V29l0,0-.05,0,0-.09.11-.06v-.05l-.05,0v-.34l0-.16,0,0v-.31l0-.07,0-.2h0l0,.15,0,.09.09,0,0,0v-.22l0-.11,0,.27h0l0-.29,0,0,0,0v-.15l.06-.09,0,0v-.49l0,.11,0,0-.05.16v.13h0l0-.15v0l-.08.11v-.22l.06,0,.09-.14,0,0,0-.07v-.14l0,0v.18h0v-.25h.11l0,.18,0-.09v-.38l0,0v.24l-.06-.06-.07,0-.07-.11,0-.07V26l-.13-.07-.05.05,0,.06,0-.13,0,0v.31l0,0v.07h-.07l0-.21,0,0v.06h0v.4l0,0v.07h0l0,0h0v.41h-.07v-.29l-.06,0,0,.11h0l0,0v-.08h0v.07l0,0,0-.13h0l0,.14,0-.07-.06.09v.15l.11.09.07-.06,0-.07h0v.07l0,0V27h.07v.09h-.1l0,.08v.43l-.07.07v.15h0v-.11l0,0V28l0,.09,0,0h0l0-.26,0,.08,0,.25,0,.14,0-.05v-.11l0-.07,0-.11.13-.16v-.07h0l0,0h0l-.06,0,0,.21h0V27.9l0,0v-.18l0,0,0,.05h0l0-.21,0,.09,0,0V27.4h-.05v-.2h.1l0,.05,0-.11V27h.12v.08h0v.28l-.05-.06,0,.06-.07.09v.05l0,.05-.05.06v.11l0-.06.07,0,0-.14h0l0,.16,0,0v.49l0,.07v.27h0l0-.11,0,0-.08.85h0l0-.95.06,0v-.07l0,0-.05.13,0,.47h0l0,0v-.27l0,.21V29h0l0-.1v.19l0,0,0,.2v.4l0,.2,0,0V30h0v.29h0v-.18l0,0v.32h0l0-.07v-.27l0-.09,0-.11,0,.11.1-.14v-.17l0-.2v-.2h0v.24H187l.06.14,0-.14h0l0,.31,0,.14-.13.42v.18l0,.07.09-.14h0l.09,0,0,.05,0,0h0v0l.09,0h.08l.07-.07,0-.17,0-.38,0-.07,0-.31v-.61l0-.07,0-.11v-.27l0,0,0,.27,0,0v-.2l0,0v.06l.06.1,0,.15V29l-.07.07,0,.44.06-.08,0,.36,0,.33,0-.16v-.17l0,0,0-.11,0,0v.33l0,.09v.23l0,.15,0,.12-.07.08,0,.05v.11l0-.09h0v-.13l0,.06,0,.05,0,.24-.09-.13h0v.13l-.06.05-.07,0,0,0-.06,0,.06,0,0-.11,0,0,0,.05,0-.05,0-.06,0,0v-.07h0l0,0-.06,0-.09,0-.05,0-.06,0-.07,0v.09l.06,0h-.09l0,0-.11.15h-.07l0,.12-.06-.12h0v.05h-.09v0l0,0,0-.08-.12,0-.06.13h-.05l0,0h0v.09l0,0v.07l0,0,0-.11-.05.07-.13,0,0,.05-.2,0-.11.11-.11-.07Zm0-4.17,0,0,0,0Zm0,2.84h0l0-.13.06-.05v-.26l-.06,0v.14l0,0,0,.21Zm0-4.59.06-.06v0h-.06Zm.06,1v0h-.06v0Zm0,2.68.09-.19V28.5l.14-.35v-.23l0,0,0,.15h0l0,.12-.06.37,0,.05Zm0-1.32v0Zm0-2.93,0,0V24.5l0-.05Zm.06,2v-.16h0l0,.2Zm-.06,4.14,0,0v-.09l0,0Zm.08-4.66v-.05l.05,0V26l-.05-.11.07-.26-.07-.05h0V26l0,.17Zm0,1.45,0-.22-.07,0Zm0-2.64v0Zm.05,5.94,0-.07v-.47l.05-.5,0,.07,0,0v-.15l.07-.1v.27l0,.23,0-.2,0-.05.07-.16,0-.18H186v-.67l.07-.06,0-.39,0,0,0,.18-.07.16V29l0,.18,0,.12h0l0-.24,0,.36,0,.13v.42l0,.19-.05.67,0,.06Zm0-1.23.06-.07v-.4l-.09.08v.25Zm0-6.74h0Zm0,.09h0l0,0Zm0,2h0l0,0h-.06Zm0,2.26h0V27.2h0Zm0,1.88,0,0V29l0,0Zm0-4.45h0v0h0Zm0,1.9h0l.09-.09v-.22h0l0,.2,0,.09Zm0,.54,0-.09,0,0Zm0-3.61v-.06h0v.06Zm0,1.37,0,0h0Zm0-1.64V23.2h0Zm0,.72h0l0-.09V24Zm0,1.57h0v0h0Zm0,3.4.06-.13-.06-.05V29Zm0,1.68.09,0,0-.11h0v.06h.07v-.44h0l0,.09v.11h0l0-.1,0,.1,0,.12h-.06l0-.09-.08.24Zm0-6.05h0l0,0,0,0h0Zm.17,1.1,0-.34,0-.1,0,0v-.32l-.06-.28h0v.11l-.06,0v.07h.06l0,.26,0,.18v.21l0,0v.29h0l.05-.07v.09l0,.05Zm-.13,1.91,0-.16,0-.05,0,.25Zm0-4.19h0v0Zm0,2.8v-.07h0v.07Zm0,.65,0,0,0-.11,0,.07h0l.06-.29h0v0l0-.13-.06,0h0v.3l-.06.07Zm0,.36,0-.18h0Zm0,1.4,0,0v-.05l0,0,0,.07Zm0-.47,0,0,0-.09Zm0,.27,0,0,0,0Zm.07-5.23v-.12h-.05v.12Zm0,.93v0Zm.11,3.48h0l0-.06v.07h0l0-.18.06,0v-.13l-.06,0,0-.07,0-.08h0l0,.19-.08,0v.07l0,0v.11h0l0-.11h0l0,.07Zm0-3v-.07l0,0v.09Zm0,2.48h0l0-.09h0l.05.09,0,0,.07-.16-.07-.11V26l0-.11v-.18l0-.07v0l-.07,0,0,0,0-.13-.05-.2,0,.09,0,.11,0,.31,0,.07v.69l0,.25v.23h0V26.6l0,0-.07.38Zm0,1.41v-.07h0v0Zm0,2.48h0v0l0,0Zm0-2.88,0-.16V27.7h0Zm0,.27h0v-.13h0Zm0-2.4h0v0h0Zm0-1.43h0v0h0Zm0,5,0,0,0,0,0-.14,0,0v0l-.07-.05v-.88h0v.37l0,.19L186,29v.27l0-.11h0l0,.06,0,.09h0v.15l0,0Zm.07,1.39h0v-.6l0-.2,0-.11,0-.1,0,.05h0v-.07l0-.09,0-.22v0l-.05.53,0,.11v.52Zm0-6h0l0,0Zm0,.18h0l0,0Zm0,2.92,0,0,0,0Zm0,3h0v0h0Zm.07-4.68,0,0v0l0,0v.07Zm0,1.86,0,0,0,0Zm0,.18,0,0,0,0v.05Zm0-2.17,0,0,0,0Zm0,.58h0v-.07l0,0Zm0,.89,0,0v-.11l0,0Zm0,1.53,0,0,.05-.21v.18l0,0v-.43h0l0,.09h-.05l0,0,0,0v.09h0l0,.27Zm0-6.21h0v0h0Zm0,6.34h0v0h0Zm0,1.52h0v-.2l0,0Zm.07-8v0h-.05v0Zm0,.11v-.05l-.05,0Zm0,4.14h0l0-.09v-.29h0l0,.07v.31Zm0,.56h0v0h0Zm.05,2.3,0,0,0-.2-.06-.06,0,.17v0h0Zm-.05.36h0l.09-.15V30h-.07v.09h-.05Zm0-1.41h0v0h0Zm0,1.59,0,0v-.07h0Zm0-7.21h0v0h0Zm0,2.69,0,0,0,0Zm0,.18.09,0V26l0,.08,0-.08h0Zm0,1.93,0,0v-.2l0,0Zm0,1.54,0-.05,0-.11,0-.24h-.07Zm0-6.18h0v-.07h0Zm0,1.68.07-.11,0,0h-.05Zm0,5.62,0,0v-.08l-.05-.07v.11Zm0-5.29.09-.09-.09,0Zm0,.23v-.09l0,0v.06Zm0-1.25h.06l0-.1-.09-.1,0,.13Zm0,1.52v-.05l0,0v.05Zm0-2.71,0,0v.19Zm0,7.12.05,0,0-.38h0l-.07.36Zm0-5.71,0,0h0Zm0,.43h0l0,0Zm.14,4v-.27l0,0V29h-.06V29l0,.05Zm-.1.31v-.15h0Zm0-4.14.11,0,0-.05-.08,0Zm.09.92v-.3h0l0,.07,0,.09V26l0-.07,0,.09Zm-.07,2V28l0-.05v.16Zm0,.23h0v-.11h0Zm0-1.23h0V27h0Zm0,4.05v.07h0v-.07Zm0-5.73h0v-.2h0Zm0,.09h0l0,0Zm0,.17v-.09h0v.06Zm0,4.21v-.2l0,0v.22Zm0-1.65v0Zm0,1h0v-.08h0Zm.07-3.21,0,0,0-.31,0-.05h0l.05,0,0,0,.13-.18,0-.06,0,.15.05,0,0,0v.09l0,0,0,0h.06l.05-.11h-.07v0l0,0h0l0,0,0-.14v-.09l0,.1h0v-.38l0-.07L187,24.9v0l-.06,0v.05h0l-.07,0,.1.13.06,0h0v.33l-.09,0,0,.06h0l0,0h0v.16h0l-.07-.07,0,.14h-.07V26Zm0,2.28h0v0h0Zm0-6.35h0V21.9h0Zm0,3.54h0v0h0Zm0-.3v0Zm0,1.26.06,0-.06-.11Zm0,3.71h0v-.06h0Zm0,1.12v0l0,0v-.05Zm0-6.09h0l0,0Zm0,1.06,0,0v-.33l0,0,0,.05,0,.13,0,.09Zm0-3.43v-.24l0,.19Zm0,7.52v-.15l0-.09,0,0,0,.2Zm0-7.43v0l0,0V23Zm0,2.19,0,0h.06l0,0-.13,0Zm0,.67,0,0v0h0Zm0,2,0,0v-.18l0,0Zm0,1.82.06.11,0,.16,0-.14Zm.1-6.31,0-.09h0v-.06l-.09.06v.09l-.06-.09v.09Zm-.06,6.8,0,0,0,0Zm.06-8.55v-.07h0v.07Zm0,1.5v-.34h0V23Zm0,7.65.11-.18v-.28l0-.09,0,.17v.2l0,0Zm0-5.33,0,0,0-.06Zm0,.59,0,0-.07-.09v.1Zm0,2.13h0Zm.09.69v.09h-.06Zm0-3.52h0l.09-.11-.07-.07,0,.12Zm0,3.7,0-.09.08-.7.07-.18,0-.06,0,0h0l0,0h.05v0h-.07l0,.13v.34l0,0H187l.06-.13v-.11h0l0,.11,0,.09v.45l-.08.25,0-.09Zm0,1.14h0v-.31l0,.15Zm.07-3.58h0v.22h0l0-.13Zm0,4.1.06-.1v-.22l.08-.16v-.27l-.08-.08v-.11l0,0,0,.52,0,.17Zm0-5.11h0v0l0,0Zm0,1.37h0v0Zm.05,4.18-.05.18h0V31Zm.34-7.7h.15l0-.07v-.08h-.12v-.07h0l0,.06,0-.09.16-.08v.06h0l0-.06-.05,0,.09-.07.09,0,0,0h-.07v-.05h.18l.2-.15,0,0,.2-.21,0,0,0,0h.09l.13-.13,0,0,.22-.27.05-.11.08-.09.09-.2-.09-.09-.22-.11-.81-.14-.08,0-.94,0v0l0,.33.15.52v.17l.05.14,0,.27.05.15,0,.29,0,.05,0,.13.05,0,0,.07Zm-.36-.16v-.09l0,0ZM187,29l0,0,0,.05h0V29Zm0-2.6v-.22h0v.2l0,.34,0,0v-.22Zm0,1v-.16h0l0,0,0,0v.2l0,0h0v.07l-.06,0,0,.08,0,.1h0v-.07Zm0-1.35v0l-.05.06V26Zm0,2.55h0l0,.07h0v0Zm0-5.64v-.06h0v.06Zm0,.09h0v0l0,0Zm0,3.38,0,.14,0,0v.07h-.08v-.14Zm0,.41,0,0v-.15Zm0-1.57,0,0v0l0,0Zm0-.14h0l.06-.06-.06,0h0Zm.14.29h-.09l-.05.12ZM187.24,28l0,.13h0V28Zm0,.34v.26h0v-.26Zm0,1.25.08-.05v0h.05v.22l-.05,0-.08,0Zm0-2.3h0l0,.15,0,0Zm0,1.79v.13h0v-.13Zm0-3h0v0h0Zm0,.1,0,0,0,0Zm0,4,0,.11V30.2Zm0,.76,0,0,0,.14Zm.07-5.5h0v0h0Zm0,2.51h0v0h0Zm.05,1.61v0Zm0-2.31,0,0,0,0v0Zm0-3.78h.09v0h-.06l0,0,0,0Zm.09,5V29h0l0-.18h0l0,.07v.23l0,0v-.76Zm-.06,1.2,0-.13v-.33h0l0,0,0,0h0v.08l0,0,0,.09,0,0,0,.25.05,0,0,.33,0,0,0,.29h0v-.07l0,0,0-.47,0,0,0,.17,0,.05,0,.22,0,.18v-.31Zm0-2.24,0-.06,0,0Zm.08,2,0,0v.23l-.07-.23Zm.05-6.33h0Zm0,.22h0l0,0h0Zm.13,7.14.07-.07v-.09l0,0,0,0h0v.12Zm0,.43h0V31h0Zm.11,0h0l0,0v.08l0,0Zm1.59-6.51v-.05h0l0,0Zm.16,0h0v0h0Zm.52,5.47,0,.06V30l0,0Zm.29.35h0v-.08h0l0,0Zm.07.11h0l0,0Z"/><path class="a" d="M193.17,22.61l0,0v0Zm.52,8.35h0l0,.07h0L193.6,31l.09-.06v-.07l-.05,0,0-.11,0,0-.06-.16V30.4l0-.06,0-.14,0-.33,0-.14,0-.17,0,0v-.2l0-.07,0,.13h-.09l0,0,0-.2,0,0,.06-.26,0-.32,0,0,0-.22h0l0,.46h0v-.1l0-.08v-.49l0-.39,0-.47.06,0,0,.05,0,0v-.62l0,.09h0V26.8l0,0,0,.18-.06.07h0l.05-.72.11-.09h0l0,.07h0l0-.15-.06-.05,0,0h.07l0-.09,0-.14-.09.05v-.09l0,.05,0,0v-.16l0,.05,0,.55-.08.14h0l.05-.23,0-.91.09-.09,0,.31,0,.07,0,0,0,0,0,0h0l.05-.61-.05,0,0,.18h0l0-.32,0-.13h.05l0,.25.05-.21,0-.13v0h0l0-.06,0,0,0-.05v-.13l0,.09-.06-.07.06-1h0v-.15l0-.07,0,0,0-.49h0l0,.42,0-.27v-.2h-.08v-.13l.06-.07,0-.29,0,0,0-.07h0l0-.36-.05,0,0,0-.05-.07,0-.16,0,.05.07,0,0-.11,0,0,0-.2,0,0-.06.09,0-.07v-.09l0-.05h.11l0-.24h0v-.18l0,0,0,0h0l-.06,0V20l-.05-.24h0v-.17l.07-.29.08-.07,0-.11.22-.1.16,0,.07-.07h.06l.12-.15,0,0,0,0,0,0,0,0v.06l0,0v0l0,0v.08l.07,0h0l0,0,.25,0,1.44-.13.15,0h0l1.1-.11h.05l.09,0h1l.34,0,.45.14.13.13.09.13.06,0,.29.35.18.38.05.29,0,.16-.14.22v.14l-.09.09-.06.09,0,0,0,.05-.25.15-.27.07-.26,0-1.32-.17h-.07l-.5-.09-.33,0-.07,0,0,0-.59,0-.58-.06,0,.2,0,.08,0,.28.08.1.07.45,0,.56,0,0,1-.13H197l.47,0,.34.07.06.05,0,.07h0l0-.05.16.09v0l-.09,0-.07.07.07.09h0l.07.08-.07.07V23l0,.05L198,23l.06,0,0,.14v.15l.06.07-.08,0,.08.11-.06,0,0,.1v.28l-.13.14.07,0v0l0,0-.06.07-.1,0,0,0-.24.09-.5,0h-.49l-.83-.09-.06,0,.08.29,0,.11V25l-.05.07,0,.09.07,0v.25l0,.17,0,.09v.23l0,.06,0,.25v.2l0,.07v.22l0,.09-.07.21.06.11v.24l0,.05v.11l0,.05.06.11,0,.56,0,.08,0,0h0v.18h0l.07.2-.09.24v.14h0l.05,0,2.71-.15.37.06.12.07,0,.14.14.13,0,.18.06.11v.09l.14.18.09.06,0,.18-.06.12v.08l0,.1.05.09-.11.24-.12.13-.38.07-2.57,0-.71.06-1.12-.08-.05.06-.05.11,0-.06,0-.07-.06,0-.07-.07,0,.13-.14-.06h-.33l0,.13V31.1Zm-.45-3.75,0,.06h0v-.06Zm0-7.48v0l0,0Zm0,1,0,0h0Zm0,.13V21h0v-.13Zm0-.47,0,.11v-.11Zm0,1.33v0l0,0Zm0,3,0,0h0Zm0-.32,0-.15.08-.11-.06-.14,0,0v.16Zm.07,3.86,0,.15h0v-.15Zm0-4.33v0l0,0Zm0,3.27,0,.05,0,.07-.07,0,0-.1Zm0-5.21,0,0v0l0,0Zm0,1.85,0-.1,0,0Zm0,2.65h0v0h0Zm0-3.79,0,0v0h0l0,0Zm0,7.08h0l0,.11h0l0,0Zm0,.62,0-.09h.06v.15h0l0,0Zm0-2.66h0v-.16Zm.05.63h0v-.09h0Zm.06,2.33h0l0,.11,0,.06,0,0,0-.06Zm0-9,0,0v0h0Zm0,4.34,0-.09v-.06l0,0,0,0Zm0,.43,0-.11h0l0,.06Zm0,.38.07,0,0-.23h0v.27Zm0,3.2.05-.06v0l0,0v.11Zm.05-2.33.07,0,0-.36v-.06l0,0v.25l0,0,0,.13Zm0,1.84.05-.07v-.06h0l-.07.11Zm0-.42h0v-.31l0,.09Zm0,.78v-.05h0v0Zm0,.47v0h0Zm.07-9.65,0,0,0-.16-.05,0,0,.13Zm0,9.18v-.07l0,0Zm0,.2.05,0,0,0-.05,0,0,0Zm0-2.48h0l0-.09h0v.09Zm0,2.16v0l0,0Zm.11,1.4v0h0l0,0Zm0-1.84h0v0Zm0-8.75h0v0h0Zm0,.2v0h0ZM194,21v-.12h0Zm.07-.2h0l0,0,0-.11Zm.06,8.71v0l0,0h0l0,0Zm.09,1.72v0l0,0Zm.22-10.54h0Zm.09,0h0v0h0Zm1.12,8.19v-.13l0,0v.07Zm2.11-6.27h.06l0,0h-.06Zm.18.09h0l0-.06h0Zm0,.18h0v0h0Zm.14.58v0h0v0Zm.85,6.63v0l0,0Zm.09-.47v-.05h0Z"/><path class="a" d="M107.75,48.59l-.13,0-.65-.42-.18-.14-.05-.09-.11-.06-.44-.56-.07-.19L106,47l0-.07,0,0-.07-.16,0-.06-.25-.5,0-.15-.07-.13v-.14l-.07-.2v0l-.11-.36,0,0V45l-.05-.09-.09-.38,0-.43V42.33l.32-2.78.13-.49.22-.41.23-.38.47-.62.06,0,.16-.18.2-.13.2-.31.23-.16,0,0,.16-.09.06-.07,1.33-.56.29,0h.18l.15,0h.23l.06,0h.41l.15.05h.11l.23.07.13.07.11,0,.07.07.18.06.2.1.32.26.46.45,0,.11.11.11.11.2,0,0,.15.33,0,0,.1.25,0,0,0,0,.16.36.11.42.14.75,0,0v.18l0,.38v.35l.06.16v.43l.09.13,0,.47,0,.14v.37l0,.16,0,.2v.63l0,.07v.16l0,.09-.06.51-.1.31,0,.38,0,.12-.07.15,0,.31-.09.12-.32.87-.27.47-.15.16,0,.07-.12.11,0,.08-.24.3h-.09v.09l-.29.31,0,0v0l0-.06h0l-.12,0v.09l-.09.07h-.06l0,0,0,.07-.05-.06-.09,0v.07h-.26l0,.11,0,0h-.06v0h-.09l0,0-.15,0-.07,0-.07,0,0,0h.11l0,0h0v-.11l-.11-.06v0h.09v-.07h-.09v0l0,0v0h-.11l-.07.06h0l-.38.14h-.06l-.2.07h0v0l.18-.06.18-.1h.15l.12-.13,0,0,0,0v0h-.06l0,0-.1,0H110l0,0,.07,0,0,0V47.9h0l0,0h0l0,.09H110l0,0,0-.05,0,.09,0-.06,0,0h0v0h-.09l0,0-.06,0,0,.07,0,0h0l0,0h0l-.09.09-.11,0,0,.07h-.07v0h0v.09l-.07,0H109l-.07.09-.44.15-.36,0-.27-.05Zm2-1.63h.18l.12-.07.08,0,0,0,.06,0,.36-.42.09-.16,0,0,.49-.87,0-.12,0-.07.22-.67.09-.83v-.58l-.14-1.88-.15-.92-.38-1.18-.41-.67-.15-.14-.16-.09L110,38l-.13,0-.18-.08h-.61l-.87.33-.09.14-.09.09,0,.06-.09.11,0,.05-.27.49-.25.92,0,.42v.16l0,.16v.74l0,.58.06,1.23,0,.18v.13l.07.31,0,0,0,.23.06.11.07.27.13.22.2.49.3.54.37.36.09.06h0l.2.15.15.05.18.15.18.11.12.1Zm-.78,1.5h0v-.07h-.06Zm.11-.05,0,0-.07,0v.07Zm.16-.09,0,0,0,0v-.07Zm.07,0h0l0,0Zm.22-.81,0,0,.08-.15v0l-.2.14v0h.07Zm-.07,0h0v0h0Zm0,.22h.1l.11-.06v0l-.06,0h-.11Zm0,.68h0v0h0Zm0-.5h0v0h0Zm0-.67h0v0h0Zm0,.85v0l0,0Zm.07-1h0l-.07,0v0Zm0,.11h.06l.11,0,0-.11,0,0-.09,0v0l-.09.06Zm.13.67,0,0v0h0Zm0,.15v0h0v0Zm.05,0v0h0v0Zm.07.58,0,0h0v0Zm0-.49v0h0v0Zm0,.07,0,0,0,0,0,0Zm.13.24h0l0,0,0,0,0-.07Zm0-.26,0,0v0Zm.05,0v0h0v0Zm0,.49,0,0v0h.06l0,.09,0,.06,0,0Zm0-.17v0l0,0,0,0Zm.05.08h.07v.07h.08l0,0,0,0h0l0,0-.07,0v0Zm.07-.08,0,0,.11-.06h.12v.09l-.11.08,0-.09Zm0-.63h.08v0l-.08,0Zm.2.22,0-.06,0,0-.07.07Zm-.07.13h.07v-.08l-.07,0Zm.05.09v0h0v0Zm.09.18h0v0Zm.17.09,0-.08v-.16l-.07.06v.14Zm.2-.2h0v0l0,0v0Zm0,.07h0l0,0,0,0h0Zm0,.13h0l0,0-.07,0,0,0Zm.18-.22v-.05h-.06v.05Z"/><path class="a" d="M120.11,44.68l0,0,0-.07v0l0,0h0v-.05l.1-.35.06,0V44l0,0,0,0v-.11l0,.05v-.31l0-.1v.12l0,.06v.07l0,0,0-.15.06-.12v-.28h0v.18l0,0,0-.09-.05.09,0-.05,0-.08v-.07l0,0h0l0-.36.08-.08v-.07l0-.07,0,0h0l0,.11h-.06v0l0,0,0-.13,0,0,.06,0v-.09l-.09,0,0,.07v-.15l.11-.09v-.59l-.08-.09v.05l-.06.07,0,0v-.26l.06-.09v0l-.06-.07.06-.15v-.18l0-.07v-.06l0,0,0-.32,0-.08h-.06l0-.44h0l0,.34-.09-.09,0-.12.06-.09v-.49h-.06l0,.05v-.12h0v-.22l.07-.22v-.1l.06,0,0-.07,0,0v.29l0,.25,0-.07v-.13l.05-.11,0-.29.18-.12-.05-.38,0,0v.15l0,.25v0l-.08,0v-.16h0v.16h0v-.07h0l0,.16h0l0,0v-.06l-.08-.2,0,0,0,.07,0,.06V38.7l0,0,0-.09,0-.06-.06-.2.06,0v-.06h-.06l0,.08v-.18h0l0-.2.06-.08,0,.22v0l.07.2h.08l0,.06h0v0h0l.05,0v.22h0v.14h.05l.06-.22,0-.29v-.12l0,0-.06-.07v.07h0v-.11l0,0,0-.07-.06-.05v-.07l0,0v-.07l-.06-.13v-.07l0-.11,0,0v.06h0l-.06,0-.07,0v0h0l0-.06.07.09,0-.12h.07l.06.07,0,.11,0,.05v0h0l0,0h0v.07h0v0l-.13-.34,0-.08.07.08v-.15l0,0,0,0,.09-.09h0l.16-.22h.16l.06-.09.38.15.36.25.29.31.29.5.11.38,0,.06.13.63v.07l.11.69v.14l0,.09V40l0,.09v.22l.07.43-.09.82v2.27l-.12.45,0,0,0,.07,0,.07v.24l-.13.31,0,0v.18l-.2.38-.07.09v.08l-.11.07-.11.18,0,.14-.07.2-.11.13-.06,0-.09.12-.07,0-.21.2-.26.16h-.11l.13,0,.07-.08,0,0-.09.11h-.08l0,0h0l-.11.13-.14.12-.06.09-.36.31-.11.06-.07.07-.18.11-.11.09-.32.14-.26.06-.09.05-.56,0h-.61l-.05-.13,0,0,0,0,0-.06,0,0h-.2l-.11-.05h-.18l0-.09H117L117,48v.09h0l0-.06,0,0,0-.09h0l0-.11-.13,0-.07,0v.09h0l-.15-.09v-.07h.09v0l0,0,0,0,0,.09-.12-.09,0,0,0,0h-.05l0-.08,0-.2-.07-.09-.05.13h0L116,47.3l0,0,.18.24H116l0-.14h0l0,0v-.06l0-.09,0,0v-.07l0,0,0,0v.09h0l-.07,0,0-.18-.09,0-.11-.11,0-.18h0V47l.14.31,0,0-.09-.18,0,0v0l-.11-.2h0l.07.07v-.07l-.09-.25-.06-.09v-.13l.06-.07-.07-.16,0-.15-.07-.12,0,0,0,.06.11.27v.27h0l-.07-.2V46.2h0v-.05l0,0,0,.07v-.07l0-.09,0-.16,0,.13,0-.11v-.26h0l0,.18,0,0,0,0v-.3l0,0v-.18l0-.09V45l0,0-.07.09,0-.15v-.14l0,0v0l0,0v-.29l0,0v-.12l0-.07v.12h0v-.77l0-.17,0-.05v0h0v-.2l-.08.09V43h.06l0,0,0-.11-.06,0v-.09l.06-.12v-.06l0-.09,0-.07,0-.38.05-.14,0-.24.06-.14,0-.06V41.2l0,0,0,0,0,0v-.13l.06-.16V40.6h0v-.31l.07-.85,0-.07,0-.36v-.07l0-.92.08-.4,0,.07,0,.13,0,0,0-.25,0,0h0l0,0h.05l.06,0,.07-.05.07-.13,0,0,.07-.13,0,.31h0l.11-.34h0l0,.05,0-.11.11,0V37l.13-.11.13,0,0-.09h0l0,.15.07,0,0,0h0l0,0,.11.11.07,0,.12.12,0,.25.09.46v.18l.07.3.11,1,0,.4,0,.34.09,3.26,0,.3v.31l0,.18v.22l.13.69.05.18v.09l.09.11.13.47.15.18.23.23h.13l.41-.13.58-.3.4-.29,0,0,.15-.2.09-.05,0-.13,0,0,0-.05h0l.07,0v-.08l-.07.08,0,0,.18-.34Zm-5.39-2.29,0-.09v0l0,.09Zm0,2.47,0,0,0,0Zm.15.08v-.15h0Zm0-4.61H115v-.09l.05,0v-.05h0l-.09.09Zm0-.27h0v0h0Zm0-.11h0v0h0Zm0,.5h0v-.07l0,0Zm0,.28h0V40.6l0,0Zm0-1.27h.08v0H115Zm0,1.1,0-.05,0,0,0,.07Zm0-1.84h0v0h0Zm0,.43.06-.18-.06,0Zm0,.82h0v0h0Zm.13,6.5h0v-.14H115l0-.11-.06-.14h.08v.23l0,.07,0,.17h0Zm-.07-.76h0v0l0,0Zm0-6.52,0,0,0,0v.07Zm0,.58h0l0,0v-.18l0,.16v.06Zm.07-.63h0v-.08h0Zm0-.13v0h0Zm.6,8.19v-.06l-.13-.23h0V47l.07.07,0,.11Zm.09.54v0l0,0Zm.12-.51v-.09h0v0Zm.37.44v-.13h0l0,0v.11Zm1.06.47.06,0h-.06l0,0Zm.06.1h0l0-.06.11.11v0l-.2,0Zm1.84-2.31h0l0,0h0l-.07,0Zm.52-8.42v0h0l0-.1Zm0,.09v.11l0-.11Zm.09-.22v0l0,0Zm0,.38h0v0Zm.09,6.8v.09l-.09.14v-.07Zm0-7V37.4l0,.09v.09l0,0v-.05Zm.06,0,0,.09,0,.06v.09h-.07l0-.13Zm0,6.63h0v.06l0,0-.06.09v0Zm0-5.8v0l0,.07v-.09Zm0,.65h0l0,.17,0,.05,0,0Zm0,5h0v.09l0,0Zm0-1.07,0,0,0,.09h0l0-.07Zm0,.89v-.15l0,0h0l0,.08V44l0,.06h0Zm0-5v0l0,0,0,0V39h0Zm0,.89,0,0v0Zm0,.83v.2l0,0V40.6Zm0,2v0l0,0Zm.06.77v0l0,0Zm0,.09,0,0v0Zm0-4.39,0,.08v-.08Zm0,2.93,0,0v.15h0Zm0,.4v0h0v0Zm.09-1.09V41l-.07.19,0,0Zm-.08-.19v0Zm0,.59h0v0l0,0v.07Zm.08-4.43v-.09h-.08v0Zm-.06,6.94,0,0h0Zm0-4.86h0v-.2l0,.08Zm0,.49h0l.05-.16-.07,0Zm.09,3.27,0-.11-.06,0v0l-.06,0Zm0-5v.06l0,0v-.06Zm0,3.24h0v0h0Zm0-1.3h0v0Zm.07-2.75,0-.07,0,0Zm-.06,6.6h0l0,0Zm.09-5.24v0l0,0Zm0,.36v.16l0,0V39Zm0,1.33,0-.07h0Zm0,1.09,0,0v0h0Zm.09-4.05v-.07h-.06v.07Zm-.06,3.8,0-.08,0,0Zm.06-.19h0Zm0,2.28h0v0h0Zm.07-5.8,0,0,0,0h0v0Z"/><path class="a" d="M124.9,48.7l0,0,0-.07h0l0,0,0,0v0l0,0h0v.18l0,0,0,0,0,.12,0,0,0,.07h0l0-.11,0-.07h0v.13l0,0-.07.07,0-.09,0,0,0-.09,0,0h0l0-.14,0-.07,0-.33,0-.89,0-.07,0-.07,0-.8,0-.07v0l-.09-1.48.05-2.15-.12-.4V37.38l.2-.23.09,0,.16-.22.11,0,.11-.09.32-.13h.81l.06,0,.18,0h.07l.38,0h.25l.2,0h.35v.05h0l.06-.05h.63l.44.09.41.14.25.11.38.26h0l.31.29.41.54,0,.15.09.14.11.33v.09l0,0,0,.38,0,.58-.07.2,0,.4-.14.21-.13.26-.11.12-.05.13,0,.07-.06,0,0,.06h0l0,.15-.16.11,0,.07-.09,0-.22.18,0-.06h0l0,.06,0,.07,0,0v0l0,0,0,0,0,0-.07,0v0h0v0l-.07.07h-.18l-.11.11,0,0,0,0-.06,0h-.07v.06h.06v.06l-.13-.06h0l-.09,0,0,.06v.12h0v-.09l-.07.09-.09,0v0h-.08l-.07.06h-.07l.07-.06h0l.07-.05H128v-.07h0l-.08.05h0l0-.07,0,0,0,0,0,0h0v.15h-.07l-.05.08h.07l0,0h0l0,0v.07l0,0,0,.06-.12-.06,0,0,0,.13,0,0-.07,0h-.13l0,0,0,.05h0l0-.12h0v.16l0,0h0v0l0,0,0,0-.07,0V43l0,0h0l0,0,0-.09v-.07l-.06,0,.13,0v-.06h-.11l0,.07,0,0v.13l0,0V43l-.16-.09,0,.09-.09,0,.11.11,0,.07h0l.06,0h.05l0,0,0-.05,0-.07,0,0,.07.07v-.05l-.07-.15v-.07h0l0,.12,0,.08,0,.07H127v-.05l0-.06h0l.07.11.06-.07V43l0-.07.09,0,0,0,0,0h.07v-.06h.09l0,.06.07.07h0v0l0,0,0-.07v-.06l.07.06.11.14.13.09,0,0h.08l0,0,0-.07.22.25,0,.06.16.22.28.56.14.45.49,1.19.07.13.05.16.24.36.05.05,0,.08.34.36,0,0,0,0,.07,0,0,.05.09.08,0,0,0,0-.07.09h.07l-.12.09,0,.08,0,0v.2l-.09.13v.09l-.07.07,0,.05-.11,0-.05.16-.09.09,0,.06-.18.16-.09,0-.18,0-.09,0-.11,0,0,0-.21,0-.06,0-.14,0-.29-.09,0,0,0,0,0,0,0-.06,0-.09v0l0,.11-.15-.17,0,0h0V48h0l0,0h0l0,.05,0-.05-.07,0,0-.08V47.9l-.2-.34v.11h0l-.06-.17,0,0-.07-.13v-.23l-.05,0,0,0h0l0-.2-.07-.11v-.16l0,0,0-.11,0,0v-.1l-.07-.08-.07-.34v-.11l-.07-.09-.06-.25-.09-.22v-.14l-.06-.07-.18-.58,0-.15-.14-.38-.22-.27-.31-.14,0,2.33.09,1.64,0,.08,0,.32v.4l0,0,0,0,0,0,0,0-.13.05-.09.17h-.07v-.13l0,.06,0,.09h0l0-.08,0,.06,0-.09-.09.09V48.5l0,0,0-.13v.25l-.07.09v-.14l0-.07h0v.16l-.07.21Zm-.91-3v-.14h0v.14Zm0,.14h0v0h0Zm0,.38h0l0,0v-.07H124Zm0-.76h0Zm0,.58h0v-.14l0,0Zm0,.42h0v0h0Zm.08.79V47l0,.05,0,.18Zm0-1.55v-.07h0v0Zm0,.56,0-.13h0v-.22h0v.32Zm0,.18v-.11l0,0v.07Zm0,.42v-.26l0,.17,0,.05Zm0,1.15v0h0Zm0-2.08,0,0,0,0v0h0v0l0-.05v0l0,0v.07Zm0,.33h0l0,0h0Zm0,1.64,0-.18.06-.16,0-.05,0,.12,0-.12v-.31l0,.18,0,0v.32l0,.06Zm0,.17h0v0l0,0Zm0-2.06v0l0,0Zm0,2.35v-.15l-.06.11Zm0-2.14h0v-.07l0,0Zm0,1.12.06-.07v-.31l0,.28,0,.1Zm0,.09h0Zm.06.24v0l0,0Zm0,.23h0v0h0Zm.34-4.62v0h0v0Zm0,2.85h0l0-.15h0l0,0,0,0v-.07l0,.05,0,.07,0,.09,0,.08Zm0-.57,0,0v-.11l0,.05Zm0,2.65v-.05l0,0v0Zm0,.65v.07l0,0v-.07Zm0-1.44h0v-.06l0,0Zm0-3.22h0v0h0Zm0,1.12h0v0Zm0,1.54,0,0v0h-.05Zm0,.56,0-.18,0,0v-.09l-.06-.16,0,.4Zm0,.81v0l0,0Zm0-2.24,0,0V45.8h0Zm0,.14.06-.07,0-.05,0,0Zm.06.53v0h0v0Zm0,.27v-.06h0Zm0,.85h0v-.09h0l0,0Zm0-2v0l0-.06h0Zm0,1.72,0,0,0,0Zm0,.58V48h0Zm0-1.94h0Zm0,.2,0,0V46.2h0Zm0,2.23v-.1h0v0Zm0-2.08,0,0v-.06l0,0Zm0-.45h0v-.06h0Zm0,2.6h0l0,0Zm0-1.45,0-.13h0Zm0-.31h0l0,0,0,0Zm0,1.07,0-.14h0l0,.12Zm0-.72,0,0v-.07l0,0v-.13l0,.06v.16Zm0,.52,0,0,0,0Zm0,.25h0V47.9Zm.05-.56h0Zm0,.73v-.06l0,.11Zm0,.4h0v-.06h0Zm0-1.54h0l0,0Zm0,.11h0l0,0Zm0,1.23,0,0,0,0Zm.69-6.85.05,0h0l.07,0h.09l0,0,.07,0,.51-.24h.07l.15-.08.12-.11.07,0,.06,0,0,0,.06,0,0,0h0l.38-.29,0-.06v0l.09-.11.06-.13.07-.25,0,0,.07-.25v-.38l0,0,0-.13-.1-.22-.15-.18-.22-.13L127,38.3l-.45-.09h-1l-.05,0,.18,1.66,0,.06,0,.29.09.59,0,0,0,.25,0,.06,0,.25Zm-.36,5.45h0v-.07h0Zm0,.11,0,0v0l0,0Zm.05-1.32,0-.05v0l0,.07Zm.07-.52v0l0,0Zm.11.69,0-.08,0,.08h0l0,0V46l.06,0,0,.16Zm-.09,1.19v0h0v0Zm.06-1.7v0h-.06Zm0,.34,0-.07v-.11h0l0,.06v.12Zm0,.4,0,0,0,0,0,0Zm.08.8,0-.08,0,0-.07,0v-.09l0,0,0-.11,0,0-.07.07,0-.14h0l0,0v.18l0,.11Zm-.06-1.81h.06v0h-.06Zm0,2.66v0l0,0Zm0-.55v-.09l0,0v.07Zm0-.77h0v-.06h0Zm0,.5h0v0h0Zm.06.45v-.12h0v.09Zm0,.37V47.7l0,0v0l0,.05Zm0-6.15.2,0-.07-.07,0,0,0,0,0,0-.06.05Zm0,.83,0,0,0,0Zm.1,0h0v0h0Zm.08-.56,0,0v0h0l0,0Zm.07.71,0-.07v0h0l-.06,0Zm0-1V41.5h0v0h0l0,0,0,0,0,0,0,0Zm0,1h0v0h0Zm.12-.56v0h-.06Zm0,.78h.07v-.07h-.11Zm0-.27h0v0h0Zm0,.49v0h0v0Zm0-1.61h.11l0-.06-.11,0Zm0,.39,0,0v0h0v0Zm0-.19h0v0h0Zm0,.81h0v0h0Zm0,.14h.09v-.09h0l0,0-.07,0Zm.09.31.1,0-.07,0v0h0v0l0,0Zm0,.25,0,0,0-.06,0,0Zm0-1.44h0v0h0Zm0,1.32h0v0h0Zm.06-1.48h0l0,0v0h-.07Zm0,.36,0,0v0Zm0,.77,0-.05v0Zm0-1.35.05-.06v0l-.07.07h-.06Zm-.06.41,0,0v0l0,0Zm.11.11h0l0-.14h0l0,0-.09.06h.07Zm-.05-.43h0v0l0,0Zm0,.27h0v-.07h-.05Zm0-.13h0Zm0,1.11h0l.07-.08,0,0-.09,0,0,.07-.06,0Zm.07-1.43h0l0,0h.07v0l-.13,0Zm0,.67h.06v0h-.06Zm0,3.27,0,0,0,0Zm0-2.53h0v0h0Zm0-1h0v0h0l0,0Zm0-5.09h0v0Zm0,5.35,0-.06,0,0,0,0Zm0-.45,0,0h0l0,0Zm0,3.83v0h0Zm.07-3.55.07-.05v-.09h0v0h0l0,.06Zm0-.61H127v0h.06v0l-.11,0Zm0,4.5h0v-.09l0,0Zm0-3.34h0l0,0Zm.06.23h0v0h0l0,0v0Zm0,3.18v-.07h0v0h0v0l0-.09,0-.06-.08.27Zm0,.07v0h0v0Zm0-4.42h.07v-.06h-.07Zm.05,5,0-.17,0,0,0,0,0,0-.06-.36h0V46h0l0,.29Zm.06.16v0h0Zm0-5.24h0v0h0Zm.07,0h0v0h0l0,0Zm0,5.19v-.07h0v.07Zm0-4.35v0Zm0,4.5h0v0Zm.07-4.58h0v0h0l0,0Zm0,4.81V46.8l0,0,0,0Zm0,.11h0v-.07h0Zm0-4.9,0,0,0-.05,0,0Zm.06-.4h0l0,0,0,0Zm0,5.19,0-.09h0v.07Zm0-4.48.07,0,0,0h0Zm.09-.24v-.07h0v.06Zm0,.08v0l0,0Zm0,.29.07,0v-.09l0-.08h0Zm.07-.2h0l0-.06,0,0-.06.06Zm.06,5.24,0-.17h-.08v.16Zm0-5.39h0l0,0v0l0,0Zm0,5.41v-.09h0v0Zm.11.39v0h0v0Zm0-5.09h0l0,.09v0Zm.07-.69h0v0h0Zm0,5.75h0v0h0Zm0-5v0l0,0Zm0,5.12,0,0v0h0Zm0-6h0v0l0,0,0,.06Zm.11,0h.08V42H128Zm0,.11h0v0l0,0Zm.2-.11h0v-.07l0,.05Zm.09,0v0l0,0Zm.07-.28h0l-.07.07Zm0,.28v0l0,0Zm.22-.29h0v0h0Zm.11.16v0l0,0Zm.09-.25h.05l0,0h0Zm0-.09h0l0,0v0h0Zm.07.05H129v0h-.05Zm.2-.07h0v0h0Zm.2-.18h0v-.06h0Z"/><path class="a" d="M137.1,48.8l-.08-.32-.3-1.9-.17-4.28,0-.22,0-.47,0-.25,0-.35,0-.12-.09-2.17,0-.43v-.2l.09-.69.18-.4.34-.25.06,0,0,0,0,0,.05,0h.06l.05,0,.11-.06h.18l.11-.05.11,0,.41,0h.06l.21-.06.13,0,.07-.05H139l.22,0h.25l.15,0h1.55l.07,0h.08l.09,0h.18l.11.07v0l.13,0,.07,0,0,.06,0,0v.07h0l0,0v0l.05.07v.07h-.09l0,0H142l.14.18-.05,0v.07l0,.07,0,0v.09l0,.07,0,.15,0,0v.08l0,.07-.06,0v.08l-.07,0V38l0,.14-.16.13-.29,0h-.87l-.09,0-1.25,0-.11,0H139l-.15.09.13,1.44.09,0,.13,0h0l.25,0,1.4,0,.16,0h.23l.24,0,.27,0,0,0h-.12l-.11,0h-.33v0h.24l0,0v0h0l0,0,0,0h0l0,0,.07,0h0l0,0-.09,0,.11.09,0,0h0v0h-.09v0l.09,0v.07l-.09,0v.07l.12,0h0v0l-.07,0,0,0v.05h.24l-.17.13h0l0,0h0v0h-.09V41h-.06v.13l0,.05v.06l0,0,0,0h-.12v0l.05,0-.05,0v.06h-.06v.08l-.23.05,0,0h.06l0,0,0,0h-.06l-.1.1,0,.06-.44.09h-.12l-.33,0H139l0,1.27,0,.09,0,.21,0,.11,0,.13,0,.27,0,.27,0,.29.05,0v.14l0,.07,0,.15,0,.59,0,.15,0,.07v.11l-.07.34.09.08,0,.38-.06,0v.13l0,0,0,.35.05.11v.12l.06.27v.26l-.06.1v.1l-.09.14h0l.06-.18-.06-.15h0V48l-.06.13,0,0,0,.09h0v.14h0v-.05l0,0H139v.26h-.09l-.06-.07-.07,0h0l-.07,0,0-.08h0v0h0v-.06l-.13,0-.14.15,0-.15h-.07l0,.05-.14.09-.15,0v.12l-.06,0,0,0v0l-.06.11h0l0-.25,0-.06h-.07l0,.06-.05,0h-.06v-.06l0,0v.06l-.06.12,0,.08,0,0,0,0Zm.58.09h0V49l0,0Zm.28-.19h0v-.08h0l0,0,0,0Zm.78-.15,0-.07,0,0v-.07h0v.05l0,.06Zm.13-4.16h0v.09Zm0,.8h0l0-.09,0,0,0,0Zm0,.76h.05v-.13h-.05Zm.1,1.23h0l-.05-.24h0l0,.18Zm0,.47,0,0,0-.25h0v.09Zm1.63-11.15,0,0h0Zm.29,3.59V40l0,0,0-.05h0V40l.05,0Zm-.09,1.54h0v0h0Zm.52-.45,0,0v0l0,0V41h-.05v.08l0,0Zm0,.12h0l0-.06h-.09v0Zm0,.09v.06h0l0,0Zm0,.13h0l0,0Zm0-.76h0v0h0Zm.12.38,0,0h-.09l0,0Zm.1.15h-.11v0Zm0-1.16v0h0v0Zm.05-3.54v0h-.05Z"/><path class="a" d="M147.09,48.23l-.09,0,0,0-.09,0h-.05l0,0h-.14l0-.05v0h-.26l-.25-.06,0,0H146l-.16-.11-.18,0-.52-.36-.19-.22-.27-.25-.38-.47-.29-.56-.12-.38-.06-.09-.36-.89-.14-.72-.09-.76,0-.85V42.3l0-1,.18-2.62.2-1.12.1-.2.15-.13h0l.06,0,.07,0,.09-.09h0l.13-.17.14-.09h0l.05,0,.17-.07.29,0H145l.15,0,.19.22.17.32.16,1.12,0,1,0,.18,0,.18,0,2.51.05.11.09.63v.11l.08.38.23.72.07.11,0,.25.2.76.45.72.31.08.52.09.82-.35.14-1.26.09-.36v-.27l0-.17v-.07l.07-.78v-.86l0-.33,0-.51,0-.09,0-.18v0l0-.56v-.25l0-.08,0-.23-.12-1.79-.06-.33-.14-.57,0,0,.07,0,0-.11.09,0,.07-.18.09,0,0,0,0,0,.09,0,0-.14.11,0,.07-.09h.09l.11-.09.14-.06h.24l.23.15.07.11.19.4,0,.05.2.52v.08l.05.09.06.32.09.24,0,.18v.07l.12.32,0,.31,0,.26v.12l.13.36,0,.47,0,.18,0,.4,0,.13,0,.43,0,.47v.49l0,.18V43l0,.13-.05.39v.71l0,.34-.17.38v.34l0,0h-.07v.09l-.07.06v.09h0l0,0v0l-.12.14v.11l-.09.18-.13.13,0,.16.06.07,0,0h0l-.09.05,0,0-.2.19.05,0,0,.11h.05l0,.07-.07.07h-.15l-.18.15,0,0-.2.06h-.09l0,0-.05,0-.13.14,0,.09-.07,0,0,.06-.18.25,0,.14-.33.24-.21.07,0,.06-.42.09-.61,0,0,0-.09.06,0-.07Zm1.77-3.06v-.05l-.07.16Zm0-7h0l0-.05,0,0Zm0,.17,0,0v0h0Zm0,6.9h0v-.05l0,0Zm0-7h0Zm0,6.17v-.06l0,0Zm0-.49,0-.11h0v0h0v-.08l.06-.1,0,0-.11.11,0,.12Zm0,1.14v-.07l0,0Zm0-5.86h0l0,0Zm.06,5.28,0,0v0h0l0,0Zm0-2.22v0h0v0Zm0-4.76h0v0h0ZM149,39v0Zm.05,3.2v0h0Zm0-5.15,0,0v0Zm0,5.94h0v-.15l-.06.13Zm0-5.24h0Zm0,4.38v-.06l0,0Zm0,2.35,0-.13,0-.07,0,.09v.07Zm0-7,0,0v0h0Zm0,4.48,0,0v-.12l0,0,0,0V42Zm0,1.84h0v0Zm0-5.27,0,0,0,0Zm0,6v0l0,0Zm.06-2.53v0h0Zm0,2.45v0l0,0Zm0-6.57v-.06h0v.06Zm0,1.41,0-.06v0h0Zm.06,4.48,0,0v-.09h0l0,.11Zm0,.56v-.09h0l0,0Zm0-6.67h0v0Zm0,5.73v0Zm0,1.12h0v0Zm0,2.76h0v0Zm0-7.19,0,0h0Zm0,1.19v0l0,0Zm0,1.61,0,0v0h0Zm0,1.72h0v-.05Zm0-6.72h0v0h0Zm0,.23h0v0h0Zm0,.24h0v-.06h0Zm0,2.73v0Zm.06.84,0-.05v-.09l-.08.09Zm0,1v-.07l0,0Zm.92,3.53,0,0v-.09h0l0,.09Z"/><path class="a" d="M155.86,36.68v-.06l.29,0h.12l-.07,0h.07v.06l.09-.06h0l0,0h0l.06.07,0,.05,0,0,.06,0v0h0v-.07h.49v.07h.05v0h-.06v.06h.16V36.7l0,0,0,0h.13l.06,0,.16,0,.05,0h.11l.05,0h-.16l-.07,0,0,0,.17,0,0,.06,0,0,.05,0v.13l.06,0-.07.12.09.13v.07l.05,0,0,0,0,.05.05.06v0l0,0-.1,0,0,0,0,0h0v.09l0,.09-.09.07,0,.06h.06v0l-.06.11.06.06,0,.14,0,.07v0l-.08,0-.14.12.05.09h-.05l0,0-.18.14-.21.06h-.37l-.32,0-.4,0h-.34l-.15,0h0V39l0,.31v.2l0,.07.06.83v3.2l-.06.18v.2l0,.11-.06.29,0,.07,0,.53v.38l0,.18v.41l-.09.29v.16h.05l0,.26V47l0,.07v.15l.07,0v.31l.06.16V48h-.08l0,.09.07.09,0,.06h0l0,0,0-.15-.08.08h0v-.08l-.09.15-.17.07v0l-.08,0,0,.06h0l0-.06-.09.09h0v-.16l-.08.14h-.05l0,0v-.09l-.08,0,0,.05h-.09l0,.08h-.09l-.07.09-.15.09h0l0-.06-.11.09v-.14l0,.07,0,0-.05,0,0-.1,0,0,.06-.08,0,.1,0,0v-.13l0,0,.07-.18V48l0,0v-.15h-.07v-.09l.07,0v-.09l-.07-.07v-.15l-.05.11,0,.06v.09h0v0l0,0v0l0-.06v-.25l.07,0V47l-.07.06-.07,0,0,.16h0V47h-.06l0,.26v-.37h.05l0-.05.05-.07v-.11l0,0v-.2h0l0,0v.15h0l0,0,0,0,0-.2,0,0,0-.15,0,0V46l0,0h0v0l-.07-.09,0-.24-.06.22h0v-.2l-.07,0v-.11l.07-.13v0h0v0h0l.06-.2,0,0,0,0h-.07l0,0v-.13h0l0,.08v-.22l0-.06,0,0V44.7l0-.22h0l0,.11,0-.27,0,0v-.33l0,0h-.05l0-.06v-.07l0-.34,0,0,0,0v-.09l0,0,0,0V43.2l0,0v-.1l.07,0-.06-.09,0-.06,0,0,.06-.29v-.11h0v-.11l-.07-.07.07-.09V42l-.05.08,0-.06v-.21l0-.15v-.27l0-.14,0-.06V40.8l0-.06v-.09l.07-.18h0v-.12l0,0,0-.13,0-.16.05-.36-.05-.11h0v-.85l-1-.13-.09,0-.27,0-.18-.11,0,0-.24-.11h0l-.16-.09h.15v-.14h0l0-.06,0,0,.08.08h-.09l.14.08H152l.07-.08-.05,0-.22,0-.22-.11,0-.07,0,0-.2-.07h.07l.05,0v-.06h0v-.05l-.06,0v0l0,0,0-.08,0-.05v0l0,0v-.2l.09-.18v-.07l.08-.06.25,0,.22-.07.81-.11,0,0,0,0h0l.07-.07.53,0,.18,0,.42,0-.08,0v0l.09,0v0h1.09l0,0v.05l0-.05v0l.05,0,.46,0v.06ZM151.57,38l.06,0-.09,0Zm.11-.19h.06v-.06l.07-.07-.07,0h-.11l-.06,0,0,0h.09v0l-.07.07Zm.38.2.11-.09.09,0,0-.05-.29,0v0h0l0,0h0v0H152l0,0,0,0,0,0h-.07l-.08,0h-.1l.12.08h.2Zm-.25-.11v-.05h-.06v0Zm0,.44h0v0l0,0Zm.11-.56h0l.06-.13H152l0,0,0,.05Zm.12-.11.24,0-.06-.07-.12,0H152Zm.13.13.07-.06h0v0h0l-.08,0h0v0Zm-.07.36h0v-.07h0Zm.18-.58h0l0,0h-.05Zm.2-.09v0l-.13,0v.07Zm.16.25.05,0-.16,0-.07,0h-.06v.09l-.05,0Zm-.22-.36.22,0v-.08h0l-.05.08,0,0,0-.09h0l-.07.09-.09,0Zm0-.16v0l0,0Zm0,.07h0v0h0Zm.13.18h.07l0,0h-.05l-.06,0Zm.24-.11.09-.05-.06-.07h0v.12Zm.23.11.22-.07,0,0h-.25l-.06.07Zm-.11-.31h0Zm0,.38h0Zm0-.18h0l0-.05.06,0,.19,0h.33l0,0,.2-.09v0l-.07,0-.11,0,0-.06h0l0,0,0,0-.06,0,0-.05-.11,0h-.15l-.07-.06h-.07v.06h0l0,0h0v0l-.06.05h0Zm.45-.21v0h-.11v0Zm-.09-.11h.09v0h-.09Zm.13,5.31v.05l0,0v-.11Zm0,3.22v.12h0v-.09Zm0,1,.05.05v.07h-.05Zm0,.58.05,0v.09l-.05,0Zm0-10.5h0v0h0Zm0,7.59v.07h0V44.3Zm0,3.27,0,0,0,.09h0Zm0-6h0v-.06h0Zm0,6.37v0h0v0Zm0-10.89h0v0h0Zm0,.11h0v0h0Zm0,7.21h0Zm0,1.46,0,0,0,.19,0,0V46Zm0-.94v-.11l-.05.09Zm0,1.83v.07h0v0Zm0,1.68v.05h0v-.05Zm0-4.14V44.2h0v0Zm0,.47h0v-.07h0Zm0,.88,0,0v-.17l0,0Zm0,2h0v.2l0,0Zm0-10.44h0v0h0Zm0,10.34,0-.2h0l0,.21h0Zm0,1.1h0l0,0h0v.13l.07.16v0h0l-.08-.14Zm0-3.6,0-.11,0,0Zm0,1.41,0,0v0l0,0Zm0,1.52h0v.29l0,0,.09-.12v.14l-.05.07,0,.15h0l0-.27Zm.07-10.79,0,0h.05l.07,0v-.07h-.05l0-.06h0l0,0v.05Zm0,9.42v0l0,0Zm.05.48,0-.12v-.08h0l0,.09,0,.08Zm.06.92,0-.05-.07,0v.19l-.05-.08,0-.12v-.08h0l0,.06,0-.07,0,.07,0,.29,0-.06Zm.07-10.89V37l0,0-.05,0,.07,0Zm.05-.18h0v0h0Zm.06.23v0l0,0,0-.06v0h-.09l0,.08,0,0Zm.11,0,.07,0v0h-.07Zm.05-.12.09-.08h-.09Zm.13-.22.09-.09-.15,0v.06l0,0Zm-.06.13h.06V36.8Zm0,.18h0v0h0Zm0,.07,0,0v0h0l0,0Zm.14-.11.06-.05-.06-.09V37h-.12V37Zm0-.22h0v0h0Zm.14-.12h.06v-.06Zm.13,0h0v-.06h0Zm.09,0h.14v-.06h-.14Zm.13,0h0l.16-.11h-.11l-.1.08Zm0,.09h0l0,0h0Zm.09-.09H155v0h-.08Zm.14,0v-.06h0v0Zm.07,11.71v.07l-.07-.07Zm0-.16v0h0Zm0-11.39h0v-.11l0,.07Zm.14-.18h0v0h0Zm.15,10.88,0-.13,0,.09v-.23l0,.07-.05,0v0l0,.08Zm0-10.84,0,0v-.06h0l0,0Zm.05,10.1,0-.11,0-.07,0,0,0,.12Zm0-.94v0h0v0Zm0,2v-.07h0v.11Zm0-11.18h0v0h0Zm0,11.26h0v0l0,0Zm.09-11.21,0,0v-.09h-.06v.09Zm.06.09h.07l0,0h0Zm.48,0,0-.07v0h0l-.12,0v0h-.22v0l0,0,0,0h.11l.13,0v0Zm-.14,0v0h0Zm.25-.09h0Zm0,.27.07-.07v0h-.05l-.06.06Zm0-.16h0v0h-.05Zm.1,0h.09v0h-.06Zm.18-.12h.09l0,0h-.07Zm.29,0v-.07l0,0v0h-.16v.13Zm0,.09.09,0h0Zm.17.2h0v0h0Zm.14,0h0l0-.09h-.07l0,0,0,0v0l.05,0Zm0-.29h0l0,0Zm.43.18v-.06l0,0h0v0h0Z"/><path class="a" d="M163,48.23l-.09,0,0,0-.09,0h-.05l0,0h-.14l0-.05v0h-.26l-.25-.06,0,0H162l-.16-.11-.18,0-.52-.36-.19-.22-.27-.25-.38-.47-.29-.56-.12-.38-.06-.09-.36-.89-.14-.72-.09-.76,0-.85V42.3l0-1,.18-2.62.2-1.12.1-.2.15-.13h.05l.06,0,.07,0,.09-.09h0l.13-.17.14-.09h0l.05,0,.17-.07.29,0H161l.15,0,.19.22.17.32.16,1.12,0,1,0,.18,0,.18,0,2.51.05.11.09.63v.11l.08.38.23.72.07.11,0,.25.2.76.45.72.31.08.52.09.81-.35.15-1.26.09-.36v-.27l0-.17v-.07l.07-.78v-.86l0-.33,0-.51,0-.09,0-.18v0l0-.56v-.25l0-.08,0-.23-.12-1.79-.06-.33-.14-.57,0,0,.07,0,0-.11.09,0,.07-.18.09,0,0,0,0,0,.09,0,0-.14.11,0,.07-.09h.09l.11-.09.14-.06h.24l.23.15.07.11.19.4,0,.05.2.52v.08l.05.09.06.32.09.24,0,.18v.07l.12.32,0,.31.05.26v.12L167,40l0,.47,0,.18,0,.4,0,.13,0,.43,0,.47v.49l0,.18V43l0,.13,0,.39v.71l-.05.34-.17.38v.34l0,0h-.07v.09l-.07.06v.09h0l0,0v0l-.12.14v.11l-.09.18-.13.13,0,.16.06.07,0,0h0l-.09.05,0,0-.2.19.05,0,0,.11h.05l0,.07-.07.07H166l-.18.15,0,0-.2.06h-.09l0,0-.05,0-.13.14,0,.09-.07,0,0,.06-.18.25,0,.14-.33.24-.21.07,0,.06-.42.09-.61,0,0,0-.09.06,0-.07Zm1.77-3.06v-.05l-.07.16Zm0-7h0l0-.05,0,0Zm0,.17,0,0v0h0Zm0,6.9h0v-.05l0,0Zm0-7h0Zm0,6.17v-.06l0,0Zm0-.49,0-.11h0v0h0v-.08l.06-.1,0,0-.11.11,0,.12Zm0,1.14v-.07l0,0Zm0-5.86h0l0,0Zm.06,5.28,0,0v0h0l0,0Zm0-2.22v0h0v0Zm0-4.76h0v0h0ZM165,39v0Zm.05,3.2v0h0ZM165,37l0,0v0ZM165,43h0v-.15L165,43Zm0-5.24h0Zm0,4.38v-.06l0,0Zm0,2.35.05-.13,0-.07,0,.09v.07Zm0-7,0,0v0h0Zm0,4.48.05,0v-.12l0,0,0,0V42Zm0,1.84h0v0Zm.05-5.27,0,0,0,0Zm0,6v0l0,0Zm.06-2.53v0h0Zm0,2.45v0l0,0Zm0-6.57v-.06h0v.06Zm0,1.41,0-.06v0h0Zm.06,4.48,0,0v-.09h0l0,.11Zm0,.56v-.09h0l0,0Zm0-6.67h0v0Zm0,5.73v0Zm0,1.12h0v0Zm0,2.76h0v0Zm0-7.19,0,0h0Zm0,1.19v0l0,0Zm0,1.61,0,0v0h0Zm0,1.72h0v-.05Zm0-6.72h0v0h0Zm0,.23h0v0h0Zm0,.24h0v-.06h0Zm0,2.73v0Zm.06.84,0-.05v-.09l-.08.09Zm0,1v-.07l0,0Zm.92,3.53,0,0v-.09h0l0,.09Z"/><path class="a" d="M168.81,48.61l0-.44,0-.34.06-.18v-.2l0,0,0,.26h0l0-1.29,0-.41V44.65l0-.09-.1-1.85,0-.18,0-1.15,0-.08v-.45l-.13-1.17-.07-.35v-.25l0-.11-.09-.86v-.47l.06-.19v0l.2-.42.23-.21,1.18-.55,1.33-.19h0l.09,0H172l.07,0h.32l.15,0h.18l.36.07,0,0,.22.07.65.29.07.07.24.11.4.42.18.27.25.47V38l.05.11,0,.4,0,.09,0,.7-.11.19,0,.21-.11.15-.05.12-.32.51-.1.2v.09l-.07.11,0,0-.38.44-.29.12-.09.09-.29.22-.09.09L173,42l-.09.11.58.58.07.12.09.09.07.11.14.13.69.88.09.18,0,.06.38.67,0,.11.09.14.1.27.08.11,0,.18.2.45,0,.06.18.36v.14l-.07.11h0l0,.09h0V47l0,.15,0,0v.13h-.09l-.07,0v.22h-.05l0,0-.07,0v0h0v.06l-.08,0,0,0,0,.09-.05,0,0,0,0,.16h0l-.08,0-.16.06,0-.06,0,0h-.07V48h-.18v0h.05l-.05,0h-.09l-.13.18v0l0,0v.09l0,0,0,0-.23-.06-.08-.05,0-.11L174,48v.09l-.09,0,0-.09-.06-.07v-.09l-.05-.07-.11-.26,0-.14-.09-.07-.07,0,0-.06h0l0-.05,0,0,0-.15-.18-.2v-.09l-.12-.18-.13-.41-.13-.13-.07-.14v-.13l-.12-.11-.08-.12-.11-.29-.1-.06-.15-.32-.4-.51v0l-.37-.32-.3-.24,0,0v1.06l.06,0-.06.94-.07-.56,0,0v0l0,.11,0-.53,0-.14,0-.05,0-.11.07,0V44.3l0,0-.07,0,0-.7-.07-.06,0,0v.07h.05l0,.55,0,.12v.35h0v.9l0,0,0,.07h0l0,.07h0v-.2l0,0h0v-.09l-.06,0,0,0h-.07v.09l.07.14-.05,0v.13l0-.06v.09l0,0,0,0v.74h0V46.4l0,0,0,0,0-.09.11-.06v-.05l-.05,0v-.34l0-.16,0,0v-.31l0-.07,0-.2h0l0,.15,0,.09.09,0,0,0V45l0-.11,0,.27h0l0-.29,0,0,0,0V44.7l.06-.09,0,0v-.48l0,.1,0,0-.05.16v.13h0l0-.15v0l-.08.11v-.22l.06,0,.09-.14,0,0,0-.08V44l0,0v.18h0v-.25h.11l0,.18,0-.09v-.38l0,0v.24l-.06-.06-.07,0-.07-.11,0-.07v-.2l-.13-.07,0,.05,0,.06,0-.13,0,0v.31l0,0v.08h-.07l0-.22,0,0v.06h0v.4l0,0V44h0l0,0h0v.41h-.07v-.28l-.06-.06v.11h0l0,0v-.07l0,0v.07l0,0,0-.13h0l0,.15,0-.08-.06.09v.15l.11.09.07-.06,0-.07h0v.07l0,0v0H170v.1l-.06,0-.05,0,0,.07v.43l-.07.07v.15h0v-.11l0,0v.27l0,.09,0,0,0,0,.05-.26,0,.08,0,.25,0,.14,0,0v-.11l.06-.07,0-.11.13-.16v-.07h0l0,0h0l-.06,0v.22h0v-.17l0-.05v-.18l0,0,0,0h0l0-.21,0,.09,0,0v-.16h-.05v-.2H170l0,.05,0-.11v-.11h.12v.08l0,0v.27l0-.06,0,.06-.07.09V45l0,.06-.05.05v.11l0-.06h.07l.05-.15h0l0,.16,0,0v.49l0,.07V46h0l0-.11,0,0-.08.85h0l0-1,.06,0v-.07l0,0-.05.13,0,.47h0l0,0V46l-.05.21v.27h0l0-.1v.2h0l0,.2v.4l0,.2,0,0v.07h0v.29h0v-.18l0,0v.32h.05l0-.07v-.27l0-.09,0-.11,0,.11.09-.14v-.17l0-.2v-.19h0V47h.11l.06.15,0-.15h0l0,.31,0,.14-.13.42V48l0,.07.09-.14h0l.09,0,0,.05,0,0h0v0l.09,0h.08l.07-.07,0-.17,0-.38,0-.07,0-.31v-.61l0-.07,0-.11v-.27l0,0,0,.28,0,0v-.2l0,0,0,.06.05.11,0,.14v.18l-.07.07,0,.44.06-.08,0,.37,0,.32,0-.16V47.2l0,0,0-.11,0,0v.33l.05.09v.23l0,.15,0,.12-.07.08,0,0v.11l0-.09h0l0-.05,0-.06,0,0,0,.06,0,0,0,.24-.09-.13h0v.13l-.06,0-.07,0-.05,0-.06,0,.06,0,0-.11,0,0,0,0,0,0,0-.05.05,0v-.07h0l0,.05-.06,0-.09,0,0,0-.06,0-.07,0v.09l.06,0h-.09l0,0-.11.15h-.07l0,.12-.06-.12h0l0,0h-.09v0l0,0,0-.08-.12,0-.06.13h-.05l0,0h0v.09l0,0v.07l0,0,0-.11,0,.07-.13,0,0,0-.2,0-.11.11-.11-.07Zm0-4.18,0,0,0,0Zm0,2.84h0l0-.13.06,0v-.26l-.06,0V47l0,0,0,.22Zm0-4.59.06-.06v0h-.06Zm.06,1v0h-.06v0Zm0,2.68.09-.18V46l.14-.34v-.24l0,0,0,.15h0l0,.13-.06.36,0,.05Zm0-1.32v0Zm0-2.93,0,0V42l0-.05Zm.06,2v-.17h0l0,.2Zm-.06,4.13,0,0v-.09l0,0Zm.08-4.66v0l.05,0v-.05l-.05-.11.07-.25L169,43h0v.43l0,.17ZM169,45l0-.22-.07,0Zm0-2.64,0,0,0,0Zm.05,5.94,0-.07v-.47l.05-.5,0,.07,0,0V47.2l.07-.11v.27l0,.23.05-.2-.05,0,.07-.16,0-.18h-.07v-.67l.07-.06,0-.39,0,0,0,.18-.07.16v.22l0,.18,0,.13v0l0-.24,0,.36,0,.13v.16l0,.08v.18l0,.2-.05.66,0,.06Zm0-1.22.06-.08v-.39l-.09.07V47Zm0-6.75h0Zm0,.09h0l0,0Zm0,2h0l0,0H169Zm0,2.26h0v-.07h0Zm0,1.88,0,0v-.09l0,0Zm0-4.45h0Zm0,1.9h0l.09-.09v-.22h0v.2L169,44Zm0,.54,0-.09,0,0Zm.06-3.61v-.06h0V41Zm0,1.37,0,0h0Zm0-1.64,0,0v0h0Zm0,.72h0l0-.09,0,0Zm0,1.57h0v0h0Zm0,3.4,0-.13,0-.05,0,.14Zm0,1.68.09,0,0-.11h0V48h.07v-.43l0,0,0,.09v.11h0l0-.09,0,.09,0,.12h-.06l0-.09-.07.24Zm0-6h0l0,0,0,0h0Zm.17,1.1,0-.34,0-.09,0-.06v-.32l-.06-.27h0v.1l-.06,0v.07h.06l.05.26,0,.18v.21l0,0v.29h0l0-.07v.09l0,.05Zm-.13,1.92,0-.17,0-.05,0,.25Zm0-4.2h0v0Zm0,2.8v-.07h0v.07Zm0,.65,0,0,0-.11,0,.07h0l.06-.29h0v0l0-.13-.06,0h0V44l-.06.08Zm0,.37,0-.19h0Zm0,1.39,0,0V46l0,0,0,.07Zm0-.47,0,0,0-.09Zm0,.27,0,0,0,0Zm.07-5.22v-.13h0v.13Zm0,.92v0Zm.11,3.49,0,0,0-.06v.08l0,0,0-.18.06,0v-.13l-.06,0,0-.07,0-.07,0,0,0,.2-.08,0v.07l0,0v.11h0l.05-.11h0l0,.07Zm-.05-3V42l0,0v.1Zm0,2.47h0l.05-.09h0l.05.09,0,0,.07-.16-.07-.11v-.79l0-.11v-.18l0-.07v0l-.07,0,0,0,0-.13,0-.2,0,.09,0,.11,0,.31,0,.07v.69l0,.25v.23h0v-.34l0,0-.07.38Zm0,1.41v-.07h0v0Zm0,2.48h0v0l0,0Zm0-2.88,0-.16v-.22h0Zm0,.27h0v-.13h0Zm.05-2.4h0v0h0Zm0-1.43h0v0h0Zm0,5,0,0,0,0,0-.14,0,0v0l-.07-.06v-.88h0v.38l0,.18-.05,0v.27l0-.11h0l0,.06,0,.09,0,0v.14l0,0Zm.07,1.39h.05v-.6l0-.2.06-.1-.06-.11,0,0h-.05v-.07l.05-.09-.05-.22v0l0,.53,0,.11v.52Zm0-6h0l0,0Zm0,.18h0l0,0Zm0,2.93,0,0,0,0Zm0,2.94h0v0h0Zm.07-4.68,0,0v0l0,0v.07Zm0,1.86,0,0,0,0Zm0,.18,0,0,0,0v0Zm0-2.17h0l0,0Zm0,.58h0v-.07l0,0Zm0,.89,0,0V45l0,0Zm0,1.53h0l.05-.22v.18l0,0v-.43h0l0,.09h-.05l0,0,0,0v.09h0l0,.27Zm0-6.21h0v0h0Zm0,6.34h0v0h0Zm0,1.52h0v-.2l0,0Zm.07-8v0h-.05v0Zm0,.11v-.05l-.05,0Zm0,4.14h0l0-.09v-.29h0l0,.07,0,.06,0,.07Zm0,.56h0v0h0Zm.05,2.3,0,0,0-.2-.06,0,0,.16,0,0h0Zm-.05.36h0l.09-.15v-.14h-.07v.09h-.05Zm0-1.41h0v0h0Zm0,1.59,0,0v-.07h0Zm0-7.21h0v0h0Zm0,2.69,0,0,0,0Zm0,.18.09,0v-.11l-.05.08,0-.08h0Zm0,1.94,0,0v-.2l0,0Zm0,1.53,0,0,.05-.11,0-.24h-.07Zm0-6.18h0V40.8h0Zm0,1.68.07-.11,0,0h0Zm0,5.62,0-.05v-.07l0-.08v.11Zm0-5.29.09-.09-.09,0Zm0,.23V43l0,0v.06Zm0-1.25h.06l.05-.1-.09-.09,0,.12Zm0,1.52v-.05l0,0v0Zm0-2.71,0,0v.18Zm0,7.12.05,0,0-.38h0l-.07.36Zm0-5.71,0,0h0Zm0,.44,0,0,0,0Zm.14,3.95V46.2l0,0v.2h-.06v.07l0,.06Zm-.1.31v0Zm0-4.14.11,0,0,0-.08,0Zm.09.92v-.3h0l0,.07,0,.09v.07l0-.07,0,.09Zm-.07,2v-.11l0-.05v.16Zm0,.23h0v-.11h0Zm0-1.22h0v-.1h0Zm0,4v.08h0v-.08Zm0-5.73h0v-.2h0Zm0,.09h0l0,0Zm0,.17v-.09l0,0v.05Zm0,4.21v-.2l0,0v.22Zm0-1.65v0Zm0,1v0Zm.07-3.22,0,0,0-.31,0,0h0l0,0,0,0,.13-.18,0-.06,0,.15.05,0,0,0v.09l0,0,0,0h.06l.05-.11h-.07v0l0,0h0l0,0,0-.14v-.09l0,.1h0v-.37l0-.08-.09-.09v0l-.06,0v0h-.05l-.07,0,.1.13.06,0h0v.33l-.09,0,0,.06h0l0,0h0V43h0l-.07-.07,0,.15h-.07v.32Zm0,2.28h0v0h0Zm0-6.35h0v-.09h0Zm0,3.54h0v0h0Zm0-.3v0Zm0,1.26.06,0-.06-.11Zm0,3.71h0v-.06h0Zm0,1.12v0l0,0v0Zm0-6.09h0l0,0Zm0,1.06,0,0V43.4l0,0,0,0,0,.05,0,.13,0,.09Zm0-3.43v-.23l0,.18Zm0,7.52v-.27l0,.2Zm0-7.43v0Zm0,2.19,0,0h.06l0,0H170Zm0,.67,0,0v0h0Zm0,2v0ZM170,47l.05.11,0,.16V47Zm.09-6.3,0-.09,0,0v-.06l-.09.06v.09l-.06-.09v.09Zm-.06,6.79,0,0,0,0Zm.06-8.55V38.9h0V39Zm0,1.5v-.34h0v.34Zm0,7.65.11-.18v-.27l0-.09,0,.16v.2l0,0Zm0-5.33,0,0,0-.06Zm0,.59,0,0-.07-.09v.1Zm0,2.14h0v0h0Zm.09.68v.09h-.06Zm0-3.52h0l.09-.11-.07-.07,0,.12Zm0,3.7,0-.09.08-.7.07-.18,0-.06,0-.05h0l0,0h.05v0h-.07l0,.13v.34l0,0h-.08l.06-.13v-.11h0l0,.11,0,.09v.45l-.08.26,0-.1Zm0,1.14h0v-.31l0,.15Zm.07-3.58h0v.22h0l0-.13Zm0,4.11.06-.11v-.22l.08-.16v-.27l-.08-.08v-.1l0-.06,0,.53,0,.16Zm0-5.12h0v0l0,0Zm0,1.37h0v0Zm0,4.18,0,.18h0v-.18Zm.34-7.7h.15l0-.07v-.07h-.12v-.08h0l0,.06,0-.09.16-.08v.06h.06l0-.06-.05,0,.09-.07.09,0,0,0h-.07v-.05h.18l.2-.15.06,0,.19-.22,0,0,.05,0h.09l.13-.13,0,0,.22-.27.05-.11.08-.09.09-.2-.09-.09-.22-.1-.81-.15-.08,0-.94,0v0l0,.32.15.52v.17l.05.14,0,.27,0,.15,0,.29,0,.05,0,.13,0,.05,0,.07Zm-.36-.16v-.09l0,0Zm0,5.78,0,0,0,.05h0v-.07Zm0-2.6v-.22h0v.2l0,.34,0,0v-.22Zm0,1v-.16h0l0,0,0,0v.2l0,0h0v.07l-.06,0,0,.08,0,.11h0V45Zm0-1.35v0l-.05.06v-.09Zm0,2.55h0l0,.07h0v0Zm0-5.64v-.06h0v.06Zm0,.09h0v0l0,0Zm0,3.38,0,.14,0,0V44h-.08v-.14Zm0,.41,0,0v-.14Zm0-1.57,0,0h0Zm0-.14h0l.06-.06-.06,0h0Zm.14.29h-.09l-.05.12Zm-.09,2.67,0,.13h0v-.13Zm0,.34v.26h0V45.8Zm0,1.25.08,0v0h.05v.22l-.05,0-.08,0Zm0-2.29h0l0,.14,0,0Zm0,1.79v.12h0v-.12Zm0-3h0v0h0Zm0,.11,0,0,0,0Zm0,4,0,.11v-.11Zm0,.76,0,0,0,.14Zm.07-5.5h0v0h0Zm0,2.51h0v0h0Zm.05,1.61v0Zm0-2.31,0,0,0,0h0Zm0-3.78h.09v0h-.06l0,0,0,0Zm.09,5v.53h0l0-.18h0l0,.07v.24h0V45.8Zm-.06,1.2,0-.13v-.32h0l0,0,0,0h0v.07l0,0,0,.09,0,0,0,.25.05.06,0,.32,0,0,0,.29h0v-.07l0,0,0-.47,0,0,0,.17,0,0,0,.22,0,.18v-.31Zm0-2.24,0-.06,0,0Zm.08,2,0,0v.23l-.07-.23Zm0-6.32H171l0,0h-.07Zm0,.21H171l0,0h0ZM171,47.9l.07-.07v-.09l0,0,0,0H171v.12Zm0,.43h0v.09h0Zm.11,0h0l0,.05v.08l0,0Zm1.59-6.51v0h0l0,0Zm.16,0h0v0h0Zm.52,5.47,0,.06v0l0,0Zm.29.35h0v-.07l0,0,0,0Zm.07.11h0l0,0Z"/><path class="a" d="M176.46,40.06l0,0v0Zm.52,8.35h0l0,.07h0l-.06-.07.09-.06v-.07l0,0,0-.1,0,0-.06-.16v-.09l0-.06,0-.14,0-.33,0-.14,0-.17,0,0v-.2l0-.07,0,.13h-.09l0,0,0-.2,0,0,.06-.26,0-.32,0,0,0-.22h0l0,.46h0v-.1l0-.08V45.7l-.05-.4,0-.47.06,0,0,0,0,0v-.62l0,.09h0v-.16l0,0,0,.18-.06.07h0l.05-.72.11-.09h0l0,.07h0l0-.15-.06,0,0,0h.07l0-.09,0-.14-.09,0v-.09l0,0,0,0v-.16l0,.05,0,.55-.08.14h0l.05-.23,0-.91.09-.09,0,.31,0,.07,0,0,0,0,0,0h0l.05-.62-.05,0,0,.18h0l0-.32,0-.13h.05l0,.26.05-.22,0-.13v-.05h0l0-.06h0l0-.06v-.13l0,.09-.06-.07.06-1h0v-.15l0-.07,0,0,0-.49h0l0,.42,0-.27v-.2h-.08V40l.06-.07,0-.29,0,0,0-.07h0l0-.36,0,0,0,0-.05-.07,0-.16,0,.05.07,0,0-.11,0,0,0-.2h0l-.06.09,0-.08v-.09l0-.05h.11l0-.24h0v-.18l0,0,0,0h0l-.06,0V37.4l-.05-.23,0,0V37l.07-.28.08-.08,0-.11.22-.1.16,0,.07-.07h.06l.12-.15,0,0,0,0,0,0,0,0v.06l0,0v0l0,0v.07l.07,0h0l0,0,.25.05,1.44-.12.15,0h0l1.1-.11h0l.09,0h1l.34,0,.46.15.12.12.09.13.06,0,.29.35.18.38,0,.29,0,.16-.14.22v.14l-.09.09-.06.09,0,0,0,0-.25.15-.27.07-.26,0-1.32-.17h-.07l-.5-.09-.33,0-.07,0,0,0-.59,0-.58,0,0,.19,0,.08,0,.29.08.09.07.45,0,.56,0,0,1-.13h.43l.47,0,.34.07.06,0,0,.07h0l0,0,.16.09v0l-.09,0-.07.07.07.09h0l.07.08-.07.07v.07l0,.05-.06,0,.06,0,0,.15v.14l.06.07-.08,0,.08.11-.06,0,0,.11v.27l-.13.14.07,0v0l0,0-.06.07-.1,0,0,0-.24.09-.5,0h-.49l-.83-.09-.06,0,.08.29,0,.11v.27l-.05.07,0,.09.08,0,0,.25,0,.17.06.09,0,0v.2l0,.06,0,.25v.18l0,0L179,44v.22l.06.09-.08.21.06.11v.24l0,.05V45l0,.06.05.1,0,.56,0,.08,0,0h0v.06l0,.12h0l.07.2-.09.24v.14h0l0,0,2.71-.15.37.06.12.07,0,.15.15.12,0,.18.06.11v.09l.14.18.09.06,0,.18-.06.12v.08l0,.1,0,.1-.11.23-.12.13-.38.07-2.57.05-.71.06-1.12-.07-.05,0,0,.11,0-.06,0-.07-.06,0-.07-.08,0,.13-.14,0h-.33v.12l0-.09Zm-.45-3.74,0,0h0v0Zm0-7.49v0l0,0Zm0,1,0,0,0,0,0,0Zm0,.13v.16h0V38.3Zm0-.47,0,.11V37.8Zm0,1.34v0l0,0Zm0,3,0,0h0Zm0-.32,0-.15.08-.11-.06-.14,0,0v.16Zm.07,3.86,0,.15h0v-.15Zm0-4.33v0l0,0Zm0,3.27.05.05,0,.07h-.07l0-.11Zm0-5.21,0,0v-.05l0,0Zm0,1.85,0-.09,0,0Zm0,2.65h0v0h0Zm.05-3.79,0,0v0h0l0,0Zm0,7.08h0l0,.11h0l0,0Zm0,.62,0-.09h.06v.15h0l0,0Zm0-2.66h0V45Zm.05.63h0v-.09h0Zm.06,2.33h0l0,.11,0,.06,0,0,0-.06Zm0-9,0,0v0h0Zm0,4.34,0-.09v-.06l0,0,0,0Zm0,.43,0-.11h0l0,.06Zm0,.38.07,0,0-.23h0v.27Zm0,3.2,0,0v0l0,0v.11Zm0-2.33.07,0,0-.36v-.06l0,0v.26h0l0,.13Zm0,1.84L177,47v-.06h0l-.07.11Zm0-.41v-.33l0,.09Zm0,.77v0h0v0Zm0,.47v0h0Zm.07-9.65,0,0v-.16l0,0,0,.13Zm0,9.18v0l0,0,0,0Zm0,.2,0,0,0,0H177Zm0-2.47v0l0-.09h0l0,.09Zm0,2.15v0Zm.11,1.41v0h0l0,0Zm0-1.85h0v0Zm0-8.74h0v0h0Zm0,.19v0h0Zm.07.11v-.12h0Zm.07-.2h0l0,0,0-.11Zm.06,8.71v0l0,0h0l0,0Zm.09,1.72v0l0,0Zm.22-10.53h0v0h0Zm.09,0h0v0Zm1.12,8.19v-.13l0,0v.07ZM181,40h.06l0,0H181Zm.18.09h0l0-.05h0Zm0,.18h0v0h0Zm.14.58v0h0v0Zm.85,6.63v0l0,0Zm.09-.47v0h0Z"/></svg>